<?xml version="1.0" encoding="utf-8" standalone="no"?>
<!DOCTYPE svg PUBLIC "-//W3C//DTD SVG 1.1//EN"
  "http://www.w3.org/Graphics/SVG/1.1/DTD/svg11.dtd">
<svg xmlns:xlink="http://www.w3.org/1999/xlink" width="597.42pt" height="521.568pt" viewBox="0 0 597.42 521.568" xmlns="http://www.w3.org/2000/svg" version="1.1">
 <metadata>
  <rdf:RDF xmlns:dc="http://purl.org/dc/elements/1.1/" xmlns:cc="http://creativecommons.org/ns#" xmlns:rdf="http://www.w3.org/1999/02/22-rdf-syntax-ns#">
   <cc:Work>
    <dc:type rdf:resource="http://purl.org/dc/dcmitype/StillImage"/>
    <dc:date>2026-08-11T10:19:52.015658</dc:date>
    <dc:format>image/svg+xml</dc:format>
    <dc:creator>
     <cc:Agent>
      <dc:title>Matplotlib v3.10.8, https://matplotlib.org/</dc:title>
     </cc:Agent>
    </dc:creator>
   </cc:Work>
  </rdf:RDF>
 </metadata>
 <defs>
  <style type="text/css">*{stroke-linejoin: round; stroke-linecap: butt}</style>
 </defs>
 <g id="figure_1">
  <g id="patch_1">
   <path d="M 0 521.568 
L 597.42 521.568 
L 597.42 -0 
L 0 -0 
L 0 521.568 
z
" style="fill: none; opacity: 0"/>
  </g>
  <g id="axes_1">
   <g id="patch_2">
    <path d="M 209.43 244.152 
L 298.71 169.308 
L 387.99 244.152 
z
" clip-path="url(#p8617bd96fb)" style="fill: #6d63a8"/>
   </g>
   <g id="patch_3">
    <path d="M 224.496 363.348 
L 372.924 363.348 
L 372.924 233.064 
L 224.496 233.064 
z
" clip-path="url(#p8617bd96fb)" style="fill: #eeeaf8; stroke: #6d63a8; stroke-width: 2.2; stroke-linejoin: miter"/>
   </g>
   <g id="patch_4">
    <path d="M 280.296 363.348 
L 320.472 363.348 
L 320.472 285.732 
L 280.296 285.732 
z
" clip-path="url(#p8617bd96fb)" style="fill: #6d63a8"/>
   </g>
   <g id="patch_5">
    <path d="M 239.004 285.732 
L 271.368 285.732 
L 271.368 253.5768 
L 239.004 253.5768 
z
" clip-path="url(#p8617bd96fb)" style="fill: #ffffff; stroke: #6d63a8; stroke-width: 1.4; stroke-linejoin: miter"/>
   </g>
   <g id="patch_6">
    <path d="M 326.61 285.732 
L 358.974 285.732 
L 358.974 253.5768 
L 326.61 253.5768 
z
" clip-path="url(#p8617bd96fb)" style="fill: #ffffff; stroke: #6d63a8; stroke-width: 1.4; stroke-linejoin: miter"/>
   </g>
   <g id="patch_7">
    <path d="M 242.91 410.472 
L 354.51 410.472 
Q 361.206 410.472 361.206 403.8192 
L 361.206 385.524 
Q 361.206 378.8712 354.51 378.8712 
L 242.91 378.8712 
Q 236.214 378.8712 236.214 385.524 
L 236.214 403.8192 
Q 236.214 410.472 242.91 410.472 
z
" clip-path="url(#p8617bd96fb)" style="fill: #22201f"/>
   </g>
   <g id="patch_8">
    <path d="M 25.29 159.3288 
L 189.9 159.3288 
Q 196.596 159.3288 196.596 152.676 
L 196.596 98.3448 
Q 196.596 91.692 189.9 91.692 
L 25.29 91.692 
Q 18.594 91.692 18.594 98.3448 
L 18.594 152.676 
Q 18.594 159.3288 25.29 159.3288 
z
" clip-path="url(#p8617bd96fb)" style="fill: #ffffff; stroke: #ddd9e8; stroke-width: 1.4; stroke-linejoin: miter"/>
   </g>
   <g id="patch_9">
    <path d="M 19.71 158.22 
L 26.406 158.22 
L 26.406 92.8008 
L 19.71 92.8008 
z
" clip-path="url(#p8617bd96fb)" style="fill: #2b806b"/>
   </g>
   <g id="patch_10">
    <path d="M 407.52 159.3288 
L 572.13 159.3288 
Q 578.826 159.3288 578.826 152.676 
L 578.826 98.3448 
Q 578.826 91.692 572.13 91.692 
L 407.52 91.692 
Q 400.824 91.692 400.824 98.3448 
L 400.824 152.676 
Q 400.824 159.3288 407.52 159.3288 
z
" clip-path="url(#p8617bd96fb)" style="fill: #ffffff; stroke: #ddd9e8; stroke-width: 1.4; stroke-linejoin: miter"/>
   </g>
   <g id="patch_11">
    <path d="M 401.94 158.22 
L 408.636 158.22 
L 408.636 92.8008 
L 401.94 92.8008 
z
" clip-path="url(#p8617bd96fb)" style="fill: #447b9b"/>
   </g>
   <g id="patch_12">
    <path d="M 25.29 270.2088 
L 189.9 270.2088 
Q 196.596 270.2088 196.596 263.556 
L 196.596 209.2248 
Q 196.596 202.572 189.9 202.572 
L 25.29 202.572 
Q 18.594 202.572 18.594 209.2248 
L 18.594 263.556 
Q 18.594 270.2088 25.29 270.2088 
z
" clip-path="url(#p8617bd96fb)" style="fill: #ffffff; stroke: #ddd9e8; stroke-width: 1.4; stroke-linejoin: miter"/>
   </g>
   <g id="patch_13">
    <path d="M 19.71 269.1 
L 26.406 269.1 
L 26.406 203.6808 
L 19.71 203.6808 
z
" clip-path="url(#p8617bd96fb)" style="fill: #d67a45"/>
   </g>
   <g id="patch_14">
    <path d="M 407.52 270.2088 
L 572.13 270.2088 
Q 578.826 270.2088 578.826 263.556 
L 578.826 209.2248 
Q 578.826 202.572 572.13 202.572 
L 407.52 202.572 
Q 400.824 202.572 400.824 209.2248 
L 400.824 263.556 
Q 400.824 270.2088 407.52 270.2088 
z
" clip-path="url(#p8617bd96fb)" style="fill: #ffffff; stroke: #ddd9e8; stroke-width: 1.4; stroke-linejoin: miter"/>
   </g>
   <g id="patch_15">
    <path d="M 401.94 269.1 
L 408.636 269.1 
L 408.636 203.6808 
L 401.94 203.6808 
z
" clip-path="url(#p8617bd96fb)" style="fill: #d2a943"/>
   </g>
   <g id="patch_16">
    <path d="M 25.29 381.0888 
L 189.9 381.0888 
Q 196.596 381.0888 196.596 374.436 
L 196.596 320.1048 
Q 196.596 313.452 189.9 313.452 
L 25.29 313.452 
Q 18.594 313.452 18.594 320.1048 
L 18.594 374.436 
Q 18.594 381.0888 25.29 381.0888 
z
" clip-path="url(#p8617bd96fb)" style="fill: #ffffff; stroke: #ddd9e8; stroke-width: 1.4; stroke-linejoin: miter"/>
   </g>
   <g id="patch_17">
    <path d="M 19.71 379.98 
L 26.406 379.98 
L 26.406 314.5608 
L 19.71 314.5608 
z
" clip-path="url(#p8617bd96fb)" style="fill: #6d63a8"/>
   </g>
   <g id="patch_18">
    <path d="M 407.52 381.0888 
L 572.13 381.0888 
Q 578.826 381.0888 578.826 374.436 
L 578.826 320.1048 
Q 578.826 313.452 572.13 313.452 
L 407.52 313.452 
Q 400.824 313.452 400.824 320.1048 
L 400.824 374.436 
Q 400.824 381.0888 407.52 381.0888 
z
" clip-path="url(#p8617bd96fb)" style="fill: #ffffff; stroke: #ddd9e8; stroke-width: 1.4; stroke-linejoin: miter"/>
   </g>
   <g id="patch_19">
    <path d="M 401.94 379.98 
L 408.636 379.98 
L 408.636 314.5608 
L 401.94 314.5608 
z
" clip-path="url(#p8617bd96fb)" style="fill: #2b806b"/>
   </g>
   <g id="line2d_1">
    <path d="M 195.48 125.5104 
L 242.91 204.2352 
" clip-path="url(#p8617bd96fb)" style="fill: none; stroke: #2b806b; stroke-opacity: 0.9; stroke-width: 1.8; stroke-linecap: square"/>
   </g>
   <g id="line2d_2">
    <path d="M 401.94 125.5104 
L 354.51 204.2352 
" clip-path="url(#p8617bd96fb)" style="fill: none; stroke: #447b9b; stroke-opacity: 0.9; stroke-width: 1.8; stroke-linecap: square"/>
   </g>
   <g id="line2d_3">
    <path d="M 195.48 236.3904 
L 224.496 265.2192 
" clip-path="url(#p8617bd96fb)" style="fill: none; stroke: #d67a45; stroke-opacity: 0.9; stroke-width: 1.8; stroke-linecap: square"/>
   </g>
   <g id="line2d_4">
    <path d="M 401.94 236.3904 
L 372.924 265.2192 
" clip-path="url(#p8617bd96fb)" style="fill: none; stroke: #d2a943; stroke-opacity: 0.9; stroke-width: 1.8; stroke-linecap: square"/>
   </g>
   <g id="line2d_5">
    <path d="M 195.48 347.2704 
L 237.33 332.856 
" clip-path="url(#p8617bd96fb)" style="fill: none; stroke: #6d63a8; stroke-opacity: 0.9; stroke-width: 1.8; stroke-linecap: square"/>
   </g>
   <g id="line2d_6">
    <path d="M 401.94 347.2704 
L 360.09 332.856 
" clip-path="url(#p8617bd96fb)" style="fill: none; stroke: #2b806b; stroke-opacity: 0.9; stroke-width: 1.8; stroke-linecap: square"/>
   </g>
   <g id="text_1">
    <!-- WHAT DESCRIBES A HOUSE? -->
    <g style="fill: #22201f" transform="translate(139.769375 32.34595) scale(0.2 -0.2)">
     <defs>
      <path id="DejaVuSans-Bold-57" d="M 191 4666 
L 1344 4666 
L 2150 1275 
L 2950 4666 
L 4109 4666 
L 4909 1275 
L 5716 4666 
L 6859 4666 
L 5759 0 
L 4372 0 
L 3525 3547 
L 2688 0 
L 1300 0 
L 191 4666 
z
" transform="scale(0.015625)"/>
      <path id="DejaVuSans-Bold-48" d="M 588 4666 
L 1791 4666 
L 1791 2888 
L 3566 2888 
L 3566 4666 
L 4769 4666 
L 4769 0 
L 3566 0 
L 3566 1978 
L 1791 1978 
L 1791 0 
L 588 0 
L 588 4666 
z
" transform="scale(0.015625)"/>
      <path id="DejaVuSans-Bold-41" d="M 3419 850 
L 1538 850 
L 1241 0 
L 31 0 
L 1759 4666 
L 3194 4666 
L 4922 0 
L 3713 0 
L 3419 850 
z
M 1838 1716 
L 3116 1716 
L 2478 3572 
L 1838 1716 
z
" transform="scale(0.015625)"/>
      <path id="DejaVuSans-Bold-54" d="M 31 4666 
L 4331 4666 
L 4331 3756 
L 2784 3756 
L 2784 0 
L 1581 0 
L 1581 3756 
L 31 3756 
L 31 4666 
z
" transform="scale(0.015625)"/>
      <path id="DejaVuSans-Bold-20" transform="scale(0.015625)"/>
      <path id="DejaVuSans-Bold-44" d="M 1791 3756 
L 1791 909 
L 2222 909 
Q 2959 909 3348 1275 
Q 3738 1641 3738 2338 
Q 3738 3031 3350 3393 
Q 2963 3756 2222 3756 
L 1791 3756 
z
M 588 4666 
L 1856 4666 
Q 2919 4666 3439 4514 
Q 3959 4363 4331 4000 
Q 4659 3684 4818 3271 
Q 4978 2859 4978 2338 
Q 4978 1809 4818 1395 
Q 4659 981 4331 666 
Q 3956 303 3431 151 
Q 2906 0 1856 0 
L 588 0 
L 588 4666 
z
" transform="scale(0.015625)"/>
      <path id="DejaVuSans-Bold-45" d="M 588 4666 
L 3834 4666 
L 3834 3756 
L 1791 3756 
L 1791 2888 
L 3713 2888 
L 3713 1978 
L 1791 1978 
L 1791 909 
L 3903 909 
L 3903 0 
L 588 0 
L 588 4666 
z
" transform="scale(0.015625)"/>
      <path id="DejaVuSans-Bold-53" d="M 3834 4519 
L 3834 3531 
Q 3450 3703 3084 3790 
Q 2719 3878 2394 3878 
Q 1963 3878 1756 3759 
Q 1550 3641 1550 3391 
Q 1550 3203 1689 3098 
Q 1828 2994 2194 2919 
L 2706 2816 
Q 3484 2659 3812 2340 
Q 4141 2022 4141 1434 
Q 4141 663 3683 286 
Q 3225 -91 2284 -91 
Q 1841 -91 1394 -6 
Q 947 78 500 244 
L 500 1259 
Q 947 1022 1364 901 
Q 1781 781 2169 781 
Q 2563 781 2772 912 
Q 2981 1044 2981 1288 
Q 2981 1506 2839 1625 
Q 2697 1744 2272 1838 
L 1806 1941 
Q 1106 2091 782 2419 
Q 459 2747 459 3303 
Q 459 4000 909 4375 
Q 1359 4750 2203 4750 
Q 2588 4750 2994 4692 
Q 3400 4634 3834 4519 
z
" transform="scale(0.015625)"/>
      <path id="DejaVuSans-Bold-43" d="M 4288 256 
Q 3956 84 3597 -3 
Q 3238 -91 2847 -91 
Q 1681 -91 1000 561 
Q 319 1213 319 2328 
Q 319 3447 1000 4098 
Q 1681 4750 2847 4750 
Q 3238 4750 3597 4662 
Q 3956 4575 4288 4403 
L 4288 3438 
Q 3953 3666 3628 3772 
Q 3303 3878 2944 3878 
Q 2300 3878 1931 3465 
Q 1563 3053 1563 2328 
Q 1563 1606 1931 1193 
Q 2300 781 2944 781 
Q 3303 781 3628 887 
Q 3953 994 4288 1222 
L 4288 256 
z
" transform="scale(0.015625)"/>
      <path id="DejaVuSans-Bold-52" d="M 2297 2597 
Q 2675 2597 2839 2737 
Q 3003 2878 3003 3200 
Q 3003 3519 2839 3656 
Q 2675 3794 2297 3794 
L 1791 3794 
L 1791 2597 
L 2297 2597 
z
M 1791 1766 
L 1791 0 
L 588 0 
L 588 4666 
L 2425 4666 
Q 3347 4666 3776 4356 
Q 4206 4047 4206 3378 
Q 4206 2916 3982 2619 
Q 3759 2322 3309 2181 
Q 3556 2125 3751 1926 
Q 3947 1728 4147 1325 
L 4800 0 
L 3519 0 
L 2950 1159 
Q 2778 1509 2601 1637 
Q 2425 1766 2131 1766 
L 1791 1766 
z
" transform="scale(0.015625)"/>
      <path id="DejaVuSans-Bold-49" d="M 588 4666 
L 1791 4666 
L 1791 0 
L 588 0 
L 588 4666 
z
" transform="scale(0.015625)"/>
      <path id="DejaVuSans-Bold-42" d="M 2456 2859 
Q 2741 2859 2887 2984 
Q 3034 3109 3034 3353 
Q 3034 3594 2887 3720 
Q 2741 3847 2456 3847 
L 1791 3847 
L 1791 2859 
L 2456 2859 
z
M 2497 819 
Q 2859 819 3042 972 
Q 3225 1125 3225 1434 
Q 3225 1738 3044 1889 
Q 2863 2041 2497 2041 
L 1791 2041 
L 1791 819 
L 2497 819 
z
M 3616 2497 
Q 4003 2384 4215 2081 
Q 4428 1778 4428 1338 
Q 4428 663 3972 331 
Q 3516 0 2584 0 
L 588 0 
L 588 4666 
L 2394 4666 
Q 3366 4666 3802 4372 
Q 4238 4078 4238 3431 
Q 4238 3091 4078 2852 
Q 3919 2613 3616 2497 
z
" transform="scale(0.015625)"/>
      <path id="DejaVuSans-Bold-4f" d="M 2719 3878 
Q 2169 3878 1866 3472 
Q 1563 3066 1563 2328 
Q 1563 1594 1866 1187 
Q 2169 781 2719 781 
Q 3272 781 3575 1187 
Q 3878 1594 3878 2328 
Q 3878 3066 3575 3472 
Q 3272 3878 2719 3878 
z
M 2719 4750 
Q 3844 4750 4481 4106 
Q 5119 3463 5119 2328 
Q 5119 1197 4481 553 
Q 3844 -91 2719 -91 
Q 1597 -91 958 553 
Q 319 1197 319 2328 
Q 319 3463 958 4106 
Q 1597 4750 2719 4750 
z
" transform="scale(0.015625)"/>
      <path id="DejaVuSans-Bold-55" d="M 588 4666 
L 1791 4666 
L 1791 1869 
Q 1791 1291 1980 1042 
Q 2169 794 2597 794 
Q 3028 794 3217 1042 
Q 3406 1291 3406 1869 
L 3406 4666 
L 4609 4666 
L 4609 1869 
Q 4609 878 4112 393 
Q 3616 -91 2597 -91 
Q 1581 -91 1084 393 
Q 588 878 588 1869 
L 588 4666 
z
" transform="scale(0.015625)"/>
      <path id="DejaVuSans-Bold-3f" d="M 2216 1575 
L 1088 1575 
L 1088 1728 
Q 1088 1984 1191 2182 
Q 1294 2381 1625 2688 
L 1825 2869 
Q 2003 3031 2086 3175 
Q 2169 3319 2169 3463 
Q 2169 3681 2019 3804 
Q 1869 3928 1600 3928 
Q 1347 3928 1053 3823 
Q 759 3719 441 3513 
L 441 4494 
Q 819 4625 1131 4687 
Q 1444 4750 1734 4750 
Q 2497 4750 2897 4439 
Q 3297 4128 3297 3531 
Q 3297 3225 3175 2983 
Q 3053 2741 2759 2463 
L 2559 2284 
Q 2347 2091 2281 1973 
Q 2216 1856 2216 1716 
L 2216 1575 
z
M 1088 1113 
L 2216 1113 
L 2216 0 
L 1088 0 
L 1088 1113 
z
" transform="scale(0.015625)"/>
     </defs>
     <use xlink:href="#DejaVuSans-Bold-57"/>
     <use xlink:href="#DejaVuSans-Bold-48" transform="translate(110.302734 0)"/>
     <use xlink:href="#DejaVuSans-Bold-41" transform="translate(193.994141 0)"/>
     <use xlink:href="#DejaVuSans-Bold-54" transform="translate(263.636719 0)"/>
     <use xlink:href="#DejaVuSans-Bold-20" transform="translate(331.849609 0)"/>
     <use xlink:href="#DejaVuSans-Bold-44" transform="translate(366.664062 0)"/>
     <use xlink:href="#DejaVuSans-Bold-45" transform="translate(449.671875 0)"/>
     <use xlink:href="#DejaVuSans-Bold-53" transform="translate(517.982422 0)"/>
     <use xlink:href="#DejaVuSans-Bold-43" transform="translate(590.003906 0)"/>
     <use xlink:href="#DejaVuSans-Bold-52" transform="translate(663.392578 0)"/>
     <use xlink:href="#DejaVuSans-Bold-49" transform="translate(740.394531 0)"/>
     <use xlink:href="#DejaVuSans-Bold-42" transform="translate(777.601562 0)"/>
     <use xlink:href="#DejaVuSans-Bold-45" transform="translate(853.822266 0)"/>
     <use xlink:href="#DejaVuSans-Bold-53" transform="translate(922.132812 0)"/>
     <use xlink:href="#DejaVuSans-Bold-20" transform="translate(994.154297 0)"/>
     <use xlink:href="#DejaVuSans-Bold-41" transform="translate(1028.96875 0)"/>
     <use xlink:href="#DejaVuSans-Bold-20" transform="translate(1106.361328 0)"/>
     <use xlink:href="#DejaVuSans-Bold-48" transform="translate(1141.175781 0)"/>
     <use xlink:href="#DejaVuSans-Bold-4f" transform="translate(1224.867188 0)"/>
     <use xlink:href="#DejaVuSans-Bold-55" transform="translate(1309.876953 0)"/>
     <use xlink:href="#DejaVuSans-Bold-53" transform="translate(1391.078125 0)"/>
     <use xlink:href="#DejaVuSans-Bold-45" transform="translate(1463.099609 0)"/>
     <use xlink:href="#DejaVuSans-Bold-3f" transform="translate(1531.410156 0)"/>
    </g>
   </g>
   <g id="text_2">
    <!-- Examples from 82 predictor variables -->
    <g style="fill: #66615f" transform="translate(200.002617 48.574144) scale(0.105 -0.105)">
     <defs>
      <path id="DejaVuSans-45" d="M 628 4666 
L 3578 4666 
L 3578 4134 
L 1259 4134 
L 1259 2753 
L 3481 2753 
L 3481 2222 
L 1259 2222 
L 1259 531 
L 3634 531 
L 3634 0 
L 628 0 
L 628 4666 
z
" transform="scale(0.015625)"/>
      <path id="DejaVuSans-78" d="M 3513 3500 
L 2247 1797 
L 3578 0 
L 2900 0 
L 1881 1375 
L 863 0 
L 184 0 
L 1544 1831 
L 300 3500 
L 978 3500 
L 1906 2253 
L 2834 3500 
L 3513 3500 
z
" transform="scale(0.015625)"/>
      <path id="DejaVuSans-61" d="M 2194 1759 
Q 1497 1759 1228 1600 
Q 959 1441 959 1056 
Q 959 750 1161 570 
Q 1363 391 1709 391 
Q 2188 391 2477 730 
Q 2766 1069 2766 1631 
L 2766 1759 
L 2194 1759 
z
M 3341 1997 
L 3341 0 
L 2766 0 
L 2766 531 
Q 2569 213 2275 61 
Q 1981 -91 1556 -91 
Q 1019 -91 701 211 
Q 384 513 384 1019 
Q 384 1609 779 1909 
Q 1175 2209 1959 2209 
L 2766 2209 
L 2766 2266 
Q 2766 2663 2505 2880 
Q 2244 3097 1772 3097 
Q 1472 3097 1187 3025 
Q 903 2953 641 2809 
L 641 3341 
Q 956 3463 1253 3523 
Q 1550 3584 1831 3584 
Q 2591 3584 2966 3190 
Q 3341 2797 3341 1997 
z
" transform="scale(0.015625)"/>
      <path id="DejaVuSans-6d" d="M 3328 2828 
Q 3544 3216 3844 3400 
Q 4144 3584 4550 3584 
Q 5097 3584 5394 3201 
Q 5691 2819 5691 2113 
L 5691 0 
L 5113 0 
L 5113 2094 
Q 5113 2597 4934 2840 
Q 4756 3084 4391 3084 
Q 3944 3084 3684 2787 
Q 3425 2491 3425 1978 
L 3425 0 
L 2847 0 
L 2847 2094 
Q 2847 2600 2669 2842 
Q 2491 3084 2119 3084 
Q 1678 3084 1418 2786 
Q 1159 2488 1159 1978 
L 1159 0 
L 581 0 
L 581 3500 
L 1159 3500 
L 1159 2956 
Q 1356 3278 1631 3431 
Q 1906 3584 2284 3584 
Q 2666 3584 2933 3390 
Q 3200 3197 3328 2828 
z
" transform="scale(0.015625)"/>
      <path id="DejaVuSans-70" d="M 1159 525 
L 1159 -1331 
L 581 -1331 
L 581 3500 
L 1159 3500 
L 1159 2969 
Q 1341 3281 1617 3432 
Q 1894 3584 2278 3584 
Q 2916 3584 3314 3078 
Q 3713 2572 3713 1747 
Q 3713 922 3314 415 
Q 2916 -91 2278 -91 
Q 1894 -91 1617 61 
Q 1341 213 1159 525 
z
M 3116 1747 
Q 3116 2381 2855 2742 
Q 2594 3103 2138 3103 
Q 1681 3103 1420 2742 
Q 1159 2381 1159 1747 
Q 1159 1113 1420 752 
Q 1681 391 2138 391 
Q 2594 391 2855 752 
Q 3116 1113 3116 1747 
z
" transform="scale(0.015625)"/>
      <path id="DejaVuSans-6c" d="M 603 4863 
L 1178 4863 
L 1178 0 
L 603 0 
L 603 4863 
z
" transform="scale(0.015625)"/>
      <path id="DejaVuSans-65" d="M 3597 1894 
L 3597 1613 
L 953 1613 
Q 991 1019 1311 708 
Q 1631 397 2203 397 
Q 2534 397 2845 478 
Q 3156 559 3463 722 
L 3463 178 
Q 3153 47 2828 -22 
Q 2503 -91 2169 -91 
Q 1331 -91 842 396 
Q 353 884 353 1716 
Q 353 2575 817 3079 
Q 1281 3584 2069 3584 
Q 2775 3584 3186 3129 
Q 3597 2675 3597 1894 
z
M 3022 2063 
Q 3016 2534 2758 2815 
Q 2500 3097 2075 3097 
Q 1594 3097 1305 2825 
Q 1016 2553 972 2059 
L 3022 2063 
z
" transform="scale(0.015625)"/>
      <path id="DejaVuSans-73" d="M 2834 3397 
L 2834 2853 
Q 2591 2978 2328 3040 
Q 2066 3103 1784 3103 
Q 1356 3103 1142 2972 
Q 928 2841 928 2578 
Q 928 2378 1081 2264 
Q 1234 2150 1697 2047 
L 1894 2003 
Q 2506 1872 2764 1633 
Q 3022 1394 3022 966 
Q 3022 478 2636 193 
Q 2250 -91 1575 -91 
Q 1294 -91 989 -36 
Q 684 19 347 128 
L 347 722 
Q 666 556 975 473 
Q 1284 391 1588 391 
Q 1994 391 2212 530 
Q 2431 669 2431 922 
Q 2431 1156 2273 1281 
Q 2116 1406 1581 1522 
L 1381 1569 
Q 847 1681 609 1914 
Q 372 2147 372 2553 
Q 372 3047 722 3315 
Q 1072 3584 1716 3584 
Q 2034 3584 2315 3537 
Q 2597 3491 2834 3397 
z
" transform="scale(0.015625)"/>
      <path id="DejaVuSans-20" transform="scale(0.015625)"/>
      <path id="DejaVuSans-66" d="M 2375 4863 
L 2375 4384 
L 1825 4384 
Q 1516 4384 1395 4259 
Q 1275 4134 1275 3809 
L 1275 3500 
L 2222 3500 
L 2222 3053 
L 1275 3053 
L 1275 0 
L 697 0 
L 697 3053 
L 147 3053 
L 147 3500 
L 697 3500 
L 697 3744 
Q 697 4328 969 4595 
Q 1241 4863 1831 4863 
L 2375 4863 
z
" transform="scale(0.015625)"/>
      <path id="DejaVuSans-72" d="M 2631 2963 
Q 2534 3019 2420 3045 
Q 2306 3072 2169 3072 
Q 1681 3072 1420 2755 
Q 1159 2438 1159 1844 
L 1159 0 
L 581 0 
L 581 3500 
L 1159 3500 
L 1159 2956 
Q 1341 3275 1631 3429 
Q 1922 3584 2338 3584 
Q 2397 3584 2469 3576 
Q 2541 3569 2628 3553 
L 2631 2963 
z
" transform="scale(0.015625)"/>
      <path id="DejaVuSans-6f" d="M 1959 3097 
Q 1497 3097 1228 2736 
Q 959 2375 959 1747 
Q 959 1119 1226 758 
Q 1494 397 1959 397 
Q 2419 397 2687 759 
Q 2956 1122 2956 1747 
Q 2956 2369 2687 2733 
Q 2419 3097 1959 3097 
z
M 1959 3584 
Q 2709 3584 3137 3096 
Q 3566 2609 3566 1747 
Q 3566 888 3137 398 
Q 2709 -91 1959 -91 
Q 1206 -91 779 398 
Q 353 888 353 1747 
Q 353 2609 779 3096 
Q 1206 3584 1959 3584 
z
" transform="scale(0.015625)"/>
      <path id="DejaVuSans-38" d="M 2034 2216 
Q 1584 2216 1326 1975 
Q 1069 1734 1069 1313 
Q 1069 891 1326 650 
Q 1584 409 2034 409 
Q 2484 409 2743 651 
Q 3003 894 3003 1313 
Q 3003 1734 2745 1975 
Q 2488 2216 2034 2216 
z
M 1403 2484 
Q 997 2584 770 2862 
Q 544 3141 544 3541 
Q 544 4100 942 4425 
Q 1341 4750 2034 4750 
Q 2731 4750 3128 4425 
Q 3525 4100 3525 3541 
Q 3525 3141 3298 2862 
Q 3072 2584 2669 2484 
Q 3125 2378 3379 2068 
Q 3634 1759 3634 1313 
Q 3634 634 3220 271 
Q 2806 -91 2034 -91 
Q 1263 -91 848 271 
Q 434 634 434 1313 
Q 434 1759 690 2068 
Q 947 2378 1403 2484 
z
M 1172 3481 
Q 1172 3119 1398 2916 
Q 1625 2713 2034 2713 
Q 2441 2713 2670 2916 
Q 2900 3119 2900 3481 
Q 2900 3844 2670 4047 
Q 2441 4250 2034 4250 
Q 1625 4250 1398 4047 
Q 1172 3844 1172 3481 
z
" transform="scale(0.015625)"/>
      <path id="DejaVuSans-32" d="M 1228 531 
L 3431 531 
L 3431 0 
L 469 0 
L 469 531 
Q 828 903 1448 1529 
Q 2069 2156 2228 2338 
Q 2531 2678 2651 2914 
Q 2772 3150 2772 3378 
Q 2772 3750 2511 3984 
Q 2250 4219 1831 4219 
Q 1534 4219 1204 4116 
Q 875 4013 500 3803 
L 500 4441 
Q 881 4594 1212 4672 
Q 1544 4750 1819 4750 
Q 2544 4750 2975 4387 
Q 3406 4025 3406 3419 
Q 3406 3131 3298 2873 
Q 3191 2616 2906 2266 
Q 2828 2175 2409 1742 
Q 1991 1309 1228 531 
z
" transform="scale(0.015625)"/>
      <path id="DejaVuSans-64" d="M 2906 2969 
L 2906 4863 
L 3481 4863 
L 3481 0 
L 2906 0 
L 2906 525 
Q 2725 213 2448 61 
Q 2172 -91 1784 -91 
Q 1150 -91 751 415 
Q 353 922 353 1747 
Q 353 2572 751 3078 
Q 1150 3584 1784 3584 
Q 2172 3584 2448 3432 
Q 2725 3281 2906 2969 
z
M 947 1747 
Q 947 1113 1208 752 
Q 1469 391 1925 391 
Q 2381 391 2643 752 
Q 2906 1113 2906 1747 
Q 2906 2381 2643 2742 
Q 2381 3103 1925 3103 
Q 1469 3103 1208 2742 
Q 947 2381 947 1747 
z
" transform="scale(0.015625)"/>
      <path id="DejaVuSans-69" d="M 603 3500 
L 1178 3500 
L 1178 0 
L 603 0 
L 603 3500 
z
M 603 4863 
L 1178 4863 
L 1178 4134 
L 603 4134 
L 603 4863 
z
" transform="scale(0.015625)"/>
      <path id="DejaVuSans-63" d="M 3122 3366 
L 3122 2828 
Q 2878 2963 2633 3030 
Q 2388 3097 2138 3097 
Q 1578 3097 1268 2742 
Q 959 2388 959 1747 
Q 959 1106 1268 751 
Q 1578 397 2138 397 
Q 2388 397 2633 464 
Q 2878 531 3122 666 
L 3122 134 
Q 2881 22 2623 -34 
Q 2366 -91 2075 -91 
Q 1284 -91 818 406 
Q 353 903 353 1747 
Q 353 2603 823 3093 
Q 1294 3584 2113 3584 
Q 2378 3584 2631 3529 
Q 2884 3475 3122 3366 
z
" transform="scale(0.015625)"/>
      <path id="DejaVuSans-74" d="M 1172 4494 
L 1172 3500 
L 2356 3500 
L 2356 3053 
L 1172 3053 
L 1172 1153 
Q 1172 725 1289 603 
Q 1406 481 1766 481 
L 2356 481 
L 2356 0 
L 1766 0 
Q 1100 0 847 248 
Q 594 497 594 1153 
L 594 3053 
L 172 3053 
L 172 3500 
L 594 3500 
L 594 4494 
L 1172 4494 
z
" transform="scale(0.015625)"/>
      <path id="DejaVuSans-76" d="M 191 3500 
L 800 3500 
L 1894 563 
L 2988 3500 
L 3597 3500 
L 2284 0 
L 1503 0 
L 191 3500 
z
" transform="scale(0.015625)"/>
      <path id="DejaVuSans-62" d="M 3116 1747 
Q 3116 2381 2855 2742 
Q 2594 3103 2138 3103 
Q 1681 3103 1420 2742 
Q 1159 2381 1159 1747 
Q 1159 1113 1420 752 
Q 1681 391 2138 391 
Q 2594 391 2855 752 
Q 3116 1113 3116 1747 
z
M 1159 2969 
Q 1341 3281 1617 3432 
Q 1894 3584 2278 3584 
Q 2916 3584 3314 3078 
Q 3713 2572 3713 1747 
Q 3713 922 3314 415 
Q 2916 -91 2278 -91 
Q 1894 -91 1617 61 
Q 1341 213 1159 525 
L 1159 0 
L 581 0 
L 581 4863 
L 1159 4863 
L 1159 2969 
z
" transform="scale(0.015625)"/>
     </defs>
     <use xlink:href="#DejaVuSans-45"/>
     <use xlink:href="#DejaVuSans-78" transform="translate(63.183594 0)"/>
     <use xlink:href="#DejaVuSans-61" transform="translate(122.363281 0)"/>
     <use xlink:href="#DejaVuSans-6d" transform="translate(183.642578 0)"/>
     <use xlink:href="#DejaVuSans-70" transform="translate(281.054688 0)"/>
     <use xlink:href="#DejaVuSans-6c" transform="translate(344.53125 0)"/>
     <use xlink:href="#DejaVuSans-65" transform="translate(372.314453 0)"/>
     <use xlink:href="#DejaVuSans-73" transform="translate(433.837891 0)"/>
     <use xlink:href="#DejaVuSans-20" transform="translate(485.9375 0)"/>
     <use xlink:href="#DejaVuSans-66" transform="translate(517.724609 0)"/>
     <use xlink:href="#DejaVuSans-72" transform="translate(552.929688 0)"/>
     <use xlink:href="#DejaVuSans-6f" transform="translate(591.792969 0)"/>
     <use xlink:href="#DejaVuSans-6d" transform="translate(652.974609 0)"/>
     <use xlink:href="#DejaVuSans-20" transform="translate(750.386719 0)"/>
     <use xlink:href="#DejaVuSans-38" transform="translate(782.173828 0)"/>
     <use xlink:href="#DejaVuSans-32" transform="translate(845.796875 0)"/>
     <use xlink:href="#DejaVuSans-20" transform="translate(909.419922 0)"/>
     <use xlink:href="#DejaVuSans-70" transform="translate(941.207031 0)"/>
     <use xlink:href="#DejaVuSans-72" transform="translate(1004.683594 0)"/>
     <use xlink:href="#DejaVuSans-65" transform="translate(1043.546875 0)"/>
     <use xlink:href="#DejaVuSans-64" transform="translate(1105.070312 0)"/>
     <use xlink:href="#DejaVuSans-69" transform="translate(1168.546875 0)"/>
     <use xlink:href="#DejaVuSans-63" transform="translate(1196.330078 0)"/>
     <use xlink:href="#DejaVuSans-74" transform="translate(1251.310547 0)"/>
     <use xlink:href="#DejaVuSans-6f" transform="translate(1290.519531 0)"/>
     <use xlink:href="#DejaVuSans-72" transform="translate(1351.701172 0)"/>
     <use xlink:href="#DejaVuSans-20" transform="translate(1392.814453 0)"/>
     <use xlink:href="#DejaVuSans-76" transform="translate(1424.601562 0)"/>
     <use xlink:href="#DejaVuSans-61" transform="translate(1483.78125 0)"/>
     <use xlink:href="#DejaVuSans-72" transform="translate(1545.060547 0)"/>
     <use xlink:href="#DejaVuSans-69" transform="translate(1586.173828 0)"/>
     <use xlink:href="#DejaVuSans-61" transform="translate(1613.957031 0)"/>
     <use xlink:href="#DejaVuSans-62" transform="translate(1675.236328 0)"/>
     <use xlink:href="#DejaVuSans-6c" transform="translate(1738.712891 0)"/>
     <use xlink:href="#DejaVuSans-65" transform="translate(1766.496094 0)"/>
     <use xlink:href="#DejaVuSans-73" transform="translate(1828.019531 0)"/>
    </g>
   </g>
   <g id="text_3">
    <!-- HOUSE -->
    <g style="fill: #ffffff" transform="translate(275.295937 226.39605) scale(0.12 -0.12)">
     <use xlink:href="#DejaVuSans-Bold-48"/>
     <use xlink:href="#DejaVuSans-Bold-4f" transform="translate(83.691406 0)"/>
     <use xlink:href="#DejaVuSans-Bold-55" transform="translate(168.701172 0)"/>
     <use xlink:href="#DejaVuSans-Bold-53" transform="translate(249.902344 0)"/>
     <use xlink:href="#DejaVuSans-Bold-45" transform="translate(321.923828 0)"/>
    </g>
   </g>
   <g id="text_4">
    <!-- TARGET  ·  SalePrice -->
    <g style="fill: #ffffff" transform="translate(239.053594 397.846144) scale(0.105 -0.105)">
     <defs>
      <path id="DejaVuSans-Bold-47" d="M 4781 347 
Q 4331 128 3847 18 
Q 3363 -91 2847 -91 
Q 1681 -91 1000 561 
Q 319 1213 319 2328 
Q 319 3456 1012 4103 
Q 1706 4750 2913 4750 
Q 3378 4750 3804 4662 
Q 4231 4575 4609 4403 
L 4609 3438 
Q 4219 3659 3833 3768 
Q 3447 3878 3059 3878 
Q 2341 3878 1952 3476 
Q 1563 3075 1563 2328 
Q 1563 1588 1938 1184 
Q 2313 781 3003 781 
Q 3191 781 3352 804 
Q 3513 828 3641 878 
L 3641 1784 
L 2906 1784 
L 2906 2591 
L 4781 2591 
L 4781 347 
z
" transform="scale(0.015625)"/>
      <path id="DejaVuSans-Bold-b7" d="M 653 2828 
L 1778 2828 
L 1778 1619 
L 653 1619 
L 653 2828 
z
" transform="scale(0.015625)"/>
      <path id="DejaVuSans-Bold-61" d="M 2106 1575 
Q 1756 1575 1579 1456 
Q 1403 1338 1403 1106 
Q 1403 894 1545 773 
Q 1688 653 1941 653 
Q 2256 653 2472 879 
Q 2688 1106 2688 1447 
L 2688 1575 
L 2106 1575 
z
M 3816 1997 
L 3816 0 
L 2688 0 
L 2688 519 
Q 2463 200 2181 54 
Q 1900 -91 1497 -91 
Q 953 -91 614 226 
Q 275 544 275 1050 
Q 275 1666 698 1953 
Q 1122 2241 2028 2241 
L 2688 2241 
L 2688 2328 
Q 2688 2594 2478 2717 
Q 2269 2841 1825 2841 
Q 1466 2841 1156 2769 
Q 847 2697 581 2553 
L 581 3406 
Q 941 3494 1303 3539 
Q 1666 3584 2028 3584 
Q 2975 3584 3395 3211 
Q 3816 2838 3816 1997 
z
" transform="scale(0.015625)"/>
      <path id="DejaVuSans-Bold-6c" d="M 538 4863 
L 1656 4863 
L 1656 0 
L 538 0 
L 538 4863 
z
" transform="scale(0.015625)"/>
      <path id="DejaVuSans-Bold-65" d="M 4031 1759 
L 4031 1441 
L 1416 1441 
Q 1456 1047 1700 850 
Q 1944 653 2381 653 
Q 2734 653 3104 758 
Q 3475 863 3866 1075 
L 3866 213 
Q 3469 63 3072 -14 
Q 2675 -91 2278 -91 
Q 1328 -91 801 392 
Q 275 875 275 1747 
Q 275 2603 792 3093 
Q 1309 3584 2216 3584 
Q 3041 3584 3536 3087 
Q 4031 2591 4031 1759 
z
M 2881 2131 
Q 2881 2450 2695 2645 
Q 2509 2841 2209 2841 
Q 1884 2841 1681 2658 
Q 1478 2475 1428 2131 
L 2881 2131 
z
" transform="scale(0.015625)"/>
      <path id="DejaVuSans-Bold-50" d="M 588 4666 
L 2584 4666 
Q 3475 4666 3951 4270 
Q 4428 3875 4428 3144 
Q 4428 2409 3951 2014 
Q 3475 1619 2584 1619 
L 1791 1619 
L 1791 0 
L 588 0 
L 588 4666 
z
M 1791 3794 
L 1791 2491 
L 2456 2491 
Q 2806 2491 2997 2661 
Q 3188 2831 3188 3144 
Q 3188 3456 2997 3625 
Q 2806 3794 2456 3794 
L 1791 3794 
z
" transform="scale(0.015625)"/>
      <path id="DejaVuSans-Bold-72" d="M 3138 2547 
Q 2991 2616 2845 2648 
Q 2700 2681 2553 2681 
Q 2122 2681 1889 2404 
Q 1656 2128 1656 1613 
L 1656 0 
L 538 0 
L 538 3500 
L 1656 3500 
L 1656 2925 
Q 1872 3269 2151 3426 
Q 2431 3584 2822 3584 
Q 2878 3584 2943 3579 
Q 3009 3575 3134 3559 
L 3138 2547 
z
" transform="scale(0.015625)"/>
      <path id="DejaVuSans-Bold-69" d="M 538 3500 
L 1656 3500 
L 1656 0 
L 538 0 
L 538 3500 
z
M 538 4863 
L 1656 4863 
L 1656 3950 
L 538 3950 
L 538 4863 
z
" transform="scale(0.015625)"/>
      <path id="DejaVuSans-Bold-63" d="M 3366 3391 
L 3366 2478 
Q 3138 2634 2908 2709 
Q 2678 2784 2431 2784 
Q 1963 2784 1702 2511 
Q 1441 2238 1441 1747 
Q 1441 1256 1702 982 
Q 1963 709 2431 709 
Q 2694 709 2930 787 
Q 3166 866 3366 1019 
L 3366 103 
Q 3103 6 2833 -42 
Q 2563 -91 2291 -91 
Q 1344 -91 809 395 
Q 275 881 275 1747 
Q 275 2613 809 3098 
Q 1344 3584 2291 3584 
Q 2566 3584 2833 3536 
Q 3100 3488 3366 3391 
z
" transform="scale(0.015625)"/>
     </defs>
     <use xlink:href="#DejaVuSans-Bold-54"/>
     <use xlink:href="#DejaVuSans-Bold-41" transform="translate(60.462891 0)"/>
     <use xlink:href="#DejaVuSans-Bold-52" transform="translate(137.855469 0)"/>
     <use xlink:href="#DejaVuSans-Bold-47" transform="translate(214.857422 0)"/>
     <use xlink:href="#DejaVuSans-Bold-45" transform="translate(296.9375 0)"/>
     <use xlink:href="#DejaVuSans-Bold-54" transform="translate(365.248047 0)"/>
     <use xlink:href="#DejaVuSans-Bold-20" transform="translate(433.460938 0)"/>
     <use xlink:href="#DejaVuSans-Bold-20" transform="translate(468.275391 0)"/>
     <use xlink:href="#DejaVuSans-Bold-b7" transform="translate(503.089844 0)"/>
     <use xlink:href="#DejaVuSans-Bold-20" transform="translate(541.078125 0)"/>
     <use xlink:href="#DejaVuSans-Bold-20" transform="translate(575.892578 0)"/>
     <use xlink:href="#DejaVuSans-Bold-53" transform="translate(610.707031 0)"/>
     <use xlink:href="#DejaVuSans-Bold-61" transform="translate(682.728516 0)"/>
     <use xlink:href="#DejaVuSans-Bold-6c" transform="translate(750.208984 0)"/>
     <use xlink:href="#DejaVuSans-Bold-65" transform="translate(784.486328 0)"/>
     <use xlink:href="#DejaVuSans-Bold-50" transform="translate(852.308594 0)"/>
     <use xlink:href="#DejaVuSans-Bold-72" transform="translate(925.599609 0)"/>
     <use xlink:href="#DejaVuSans-Bold-69" transform="translate(974.916016 0)"/>
     <use xlink:href="#DejaVuSans-Bold-63" transform="translate(1009.193359 0)"/>
     <use xlink:href="#DejaVuSans-Bold-65" transform="translate(1068.470703 0)"/>
    </g>
   </g>
   <g id="text_5">
    <!-- LOCATION -->
    <g style="fill: #2b806b" transform="translate(35.334 117.736175) scale(0.1 -0.1)">
     <defs>
      <path id="DejaVuSans-Bold-4c" d="M 588 4666 
L 1791 4666 
L 1791 909 
L 3903 909 
L 3903 0 
L 588 0 
L 588 4666 
z
" transform="scale(0.015625)"/>
      <path id="DejaVuSans-Bold-4e" d="M 588 4666 
L 1931 4666 
L 3628 1466 
L 3628 4666 
L 4769 4666 
L 4769 0 
L 3425 0 
L 1728 3200 
L 1728 0 
L 588 0 
L 588 4666 
z
" transform="scale(0.015625)"/>
     </defs>
     <use xlink:href="#DejaVuSans-Bold-4c"/>
     <use xlink:href="#DejaVuSans-Bold-4f" transform="translate(60.095703 0)"/>
     <use xlink:href="#DejaVuSans-Bold-43" transform="translate(145.105469 0)"/>
     <use xlink:href="#DejaVuSans-Bold-41" transform="translate(218.494141 0)"/>
     <use xlink:href="#DejaVuSans-Bold-54" transform="translate(288.136719 0)"/>
     <use xlink:href="#DejaVuSans-Bold-49" transform="translate(356.349609 0)"/>
     <use xlink:href="#DejaVuSans-Bold-4f" transform="translate(393.556641 0)"/>
     <use xlink:href="#DejaVuSans-Bold-4e" transform="translate(478.566406 0)"/>
    </g>
   </g>
   <g id="text_6">
    <!-- Neighborhood  ·  MSZoning -->
    <g style="fill: #22201f" transform="translate(35.334 141.299438) scale(0.09 -0.09)">
     <defs>
      <path id="DejaVuSans-4e" d="M 628 4666 
L 1478 4666 
L 3547 763 
L 3547 4666 
L 4159 4666 
L 4159 0 
L 3309 0 
L 1241 3903 
L 1241 0 
L 628 0 
L 628 4666 
z
" transform="scale(0.015625)"/>
      <path id="DejaVuSans-67" d="M 2906 1791 
Q 2906 2416 2648 2759 
Q 2391 3103 1925 3103 
Q 1463 3103 1205 2759 
Q 947 2416 947 1791 
Q 947 1169 1205 825 
Q 1463 481 1925 481 
Q 2391 481 2648 825 
Q 2906 1169 2906 1791 
z
M 3481 434 
Q 3481 -459 3084 -895 
Q 2688 -1331 1869 -1331 
Q 1566 -1331 1297 -1286 
Q 1028 -1241 775 -1147 
L 775 -588 
Q 1028 -725 1275 -790 
Q 1522 -856 1778 -856 
Q 2344 -856 2625 -561 
Q 2906 -266 2906 331 
L 2906 616 
Q 2728 306 2450 153 
Q 2172 0 1784 0 
Q 1141 0 747 490 
Q 353 981 353 1791 
Q 353 2603 747 3093 
Q 1141 3584 1784 3584 
Q 2172 3584 2450 3431 
Q 2728 3278 2906 2969 
L 2906 3500 
L 3481 3500 
L 3481 434 
z
" transform="scale(0.015625)"/>
      <path id="DejaVuSans-68" d="M 3513 2113 
L 3513 0 
L 2938 0 
L 2938 2094 
Q 2938 2591 2744 2837 
Q 2550 3084 2163 3084 
Q 1697 3084 1428 2787 
Q 1159 2491 1159 1978 
L 1159 0 
L 581 0 
L 581 4863 
L 1159 4863 
L 1159 2956 
Q 1366 3272 1645 3428 
Q 1925 3584 2291 3584 
Q 2894 3584 3203 3211 
Q 3513 2838 3513 2113 
z
" transform="scale(0.015625)"/>
      <path id="DejaVuSans-b7" d="M 684 2619 
L 1344 2619 
L 1344 1825 
L 684 1825 
L 684 2619 
z
" transform="scale(0.015625)"/>
      <path id="DejaVuSans-4d" d="M 628 4666 
L 1569 4666 
L 2759 1491 
L 3956 4666 
L 4897 4666 
L 4897 0 
L 4281 0 
L 4281 4097 
L 3078 897 
L 2444 897 
L 1241 4097 
L 1241 0 
L 628 0 
L 628 4666 
z
" transform="scale(0.015625)"/>
      <path id="DejaVuSans-53" d="M 3425 4513 
L 3425 3897 
Q 3066 4069 2747 4153 
Q 2428 4238 2131 4238 
Q 1616 4238 1336 4038 
Q 1056 3838 1056 3469 
Q 1056 3159 1242 3001 
Q 1428 2844 1947 2747 
L 2328 2669 
Q 3034 2534 3370 2195 
Q 3706 1856 3706 1288 
Q 3706 609 3251 259 
Q 2797 -91 1919 -91 
Q 1588 -91 1214 -16 
Q 841 59 441 206 
L 441 856 
Q 825 641 1194 531 
Q 1563 422 1919 422 
Q 2459 422 2753 634 
Q 3047 847 3047 1241 
Q 3047 1584 2836 1778 
Q 2625 1972 2144 2069 
L 1759 2144 
Q 1053 2284 737 2584 
Q 422 2884 422 3419 
Q 422 4038 858 4394 
Q 1294 4750 2059 4750 
Q 2388 4750 2728 4690 
Q 3069 4631 3425 4513 
z
" transform="scale(0.015625)"/>
      <path id="DejaVuSans-5a" d="M 359 4666 
L 4025 4666 
L 4025 4184 
L 1075 531 
L 4097 531 
L 4097 0 
L 288 0 
L 288 481 
L 3238 4134 
L 359 4134 
L 359 4666 
z
" transform="scale(0.015625)"/>
      <path id="DejaVuSans-6e" d="M 3513 2113 
L 3513 0 
L 2938 0 
L 2938 2094 
Q 2938 2591 2744 2837 
Q 2550 3084 2163 3084 
Q 1697 3084 1428 2787 
Q 1159 2491 1159 1978 
L 1159 0 
L 581 0 
L 581 3500 
L 1159 3500 
L 1159 2956 
Q 1366 3272 1645 3428 
Q 1925 3584 2291 3584 
Q 2894 3584 3203 3211 
Q 3513 2838 3513 2113 
z
" transform="scale(0.015625)"/>
     </defs>
     <use xlink:href="#DejaVuSans-4e"/>
     <use xlink:href="#DejaVuSans-65" transform="translate(74.804688 0)"/>
     <use xlink:href="#DejaVuSans-69" transform="translate(136.328125 0)"/>
     <use xlink:href="#DejaVuSans-67" transform="translate(164.111328 0)"/>
     <use xlink:href="#DejaVuSans-68" transform="translate(227.587891 0)"/>
     <use xlink:href="#DejaVuSans-62" transform="translate(290.966797 0)"/>
     <use xlink:href="#DejaVuSans-6f" transform="translate(354.443359 0)"/>
     <use xlink:href="#DejaVuSans-72" transform="translate(415.625 0)"/>
     <use xlink:href="#DejaVuSans-68" transform="translate(454.988281 0)"/>
     <use xlink:href="#DejaVuSans-6f" transform="translate(518.367188 0)"/>
     <use xlink:href="#DejaVuSans-6f" transform="translate(579.548828 0)"/>
     <use xlink:href="#DejaVuSans-64" transform="translate(640.730469 0)"/>
     <use xlink:href="#DejaVuSans-20" transform="translate(704.207031 0)"/>
     <use xlink:href="#DejaVuSans-20" transform="translate(735.994141 0)"/>
     <use xlink:href="#DejaVuSans-b7" transform="translate(767.78125 0)"/>
     <use xlink:href="#DejaVuSans-20" transform="translate(799.568359 0)"/>
     <use xlink:href="#DejaVuSans-20" transform="translate(831.355469 0)"/>
     <use xlink:href="#DejaVuSans-4d" transform="translate(863.142578 0)"/>
     <use xlink:href="#DejaVuSans-53" transform="translate(949.421875 0)"/>
     <use xlink:href="#DejaVuSans-5a" transform="translate(1012.898438 0)"/>
     <use xlink:href="#DejaVuSans-6f" transform="translate(1081.404297 0)"/>
     <use xlink:href="#DejaVuSans-6e" transform="translate(1142.585938 0)"/>
     <use xlink:href="#DejaVuSans-69" transform="translate(1205.964844 0)"/>
     <use xlink:href="#DejaVuSans-6e" transform="translate(1233.748047 0)"/>
     <use xlink:href="#DejaVuSans-67" transform="translate(1297.126953 0)"/>
    </g>
   </g>
   <g id="text_7">
    <!-- SIZE &amp; AREA -->
    <g style="fill: #447b9b" transform="translate(417.564 117.736175) scale(0.1 -0.1)">
     <defs>
      <path id="DejaVuSans-Bold-5a" d="M 359 4666 
L 4281 4666 
L 4281 3938 
L 1778 909 
L 4353 909 
L 4353 0 
L 288 0 
L 288 728 
L 2791 3756 
L 359 3756 
L 359 4666 
z
" transform="scale(0.015625)"/>
      <path id="DejaVuSans-Bold-26" d="M 2497 3097 
L 3775 1691 
Q 3941 1909 4027 2181 
Q 4113 2453 4128 2797 
L 5100 2797 
Q 5053 2228 4879 1784 
Q 4706 1341 4397 1006 
L 5313 0 
L 3988 0 
L 3681 341 
Q 3353 122 2990 15 
Q 2628 -91 2222 -91 
Q 1400 -91 892 342 
Q 384 775 384 1459 
Q 384 1916 607 2267 
Q 831 2619 1338 2950 
Q 1206 3116 1143 3281 
Q 1081 3447 1081 3628 
Q 1081 4138 1478 4444 
Q 1875 4750 2534 4750 
Q 2819 4750 3126 4704 
Q 3434 4659 3769 4569 
L 3769 3700 
Q 3475 3850 3212 3922 
Q 2950 3994 2700 3994 
Q 2459 3994 2326 3901 
Q 2194 3809 2194 3641 
Q 2194 3534 2270 3398 
Q 2347 3263 2497 3097 
z
M 1875 2322 
Q 1672 2175 1569 1989 
Q 1466 1803 1466 1581 
Q 1466 1222 1731 969 
Q 1997 716 2369 716 
Q 2578 716 2759 780 
Q 2941 844 3097 972 
L 1875 2322 
z
" transform="scale(0.015625)"/>
     </defs>
     <use xlink:href="#DejaVuSans-Bold-53"/>
     <use xlink:href="#DejaVuSans-Bold-49" transform="translate(72.021484 0)"/>
     <use xlink:href="#DejaVuSans-Bold-5a" transform="translate(109.228516 0)"/>
     <use xlink:href="#DejaVuSans-Bold-45" transform="translate(181.738281 0)"/>
     <use xlink:href="#DejaVuSans-Bold-20" transform="translate(250.048828 0)"/>
     <use xlink:href="#DejaVuSans-Bold-26" transform="translate(284.863281 0)"/>
     <use xlink:href="#DejaVuSans-Bold-20" transform="translate(372.070312 0)"/>
     <use xlink:href="#DejaVuSans-Bold-41" transform="translate(406.884766 0)"/>
     <use xlink:href="#DejaVuSans-Bold-52" transform="translate(484.277344 0)"/>
     <use xlink:href="#DejaVuSans-Bold-45" transform="translate(561.279297 0)"/>
     <use xlink:href="#DejaVuSans-Bold-41" transform="translate(629.589844 0)"/>
    </g>
   </g>
   <g id="text_8">
    <!-- GrLivArea  ·  LotArea -->
    <g style="fill: #22201f" transform="translate(417.564 135.747527) scale(0.09 -0.09)">
     <defs>
      <path id="DejaVuSans-47" d="M 3809 666 
L 3809 1919 
L 2778 1919 
L 2778 2438 
L 4434 2438 
L 4434 434 
Q 4069 175 3628 42 
Q 3188 -91 2688 -91 
Q 1594 -91 976 548 
Q 359 1188 359 2328 
Q 359 3472 976 4111 
Q 1594 4750 2688 4750 
Q 3144 4750 3555 4637 
Q 3966 4525 4313 4306 
L 4313 3634 
Q 3963 3931 3569 4081 
Q 3175 4231 2741 4231 
Q 1884 4231 1454 3753 
Q 1025 3275 1025 2328 
Q 1025 1384 1454 906 
Q 1884 428 2741 428 
Q 3075 428 3337 486 
Q 3600 544 3809 666 
z
" transform="scale(0.015625)"/>
      <path id="DejaVuSans-4c" d="M 628 4666 
L 1259 4666 
L 1259 531 
L 3531 531 
L 3531 0 
L 628 0 
L 628 4666 
z
" transform="scale(0.015625)"/>
      <path id="DejaVuSans-41" d="M 2188 4044 
L 1331 1722 
L 3047 1722 
L 2188 4044 
z
M 1831 4666 
L 2547 4666 
L 4325 0 
L 3669 0 
L 3244 1197 
L 1141 1197 
L 716 0 
L 50 0 
L 1831 4666 
z
" transform="scale(0.015625)"/>
     </defs>
     <use xlink:href="#DejaVuSans-47"/>
     <use xlink:href="#DejaVuSans-72" transform="translate(77.490234 0)"/>
     <use xlink:href="#DejaVuSans-4c" transform="translate(118.603516 0)"/>
     <use xlink:href="#DejaVuSans-69" transform="translate(174.316406 0)"/>
     <use xlink:href="#DejaVuSans-76" transform="translate(202.099609 0)"/>
     <use xlink:href="#DejaVuSans-41" transform="translate(261.279297 0)"/>
     <use xlink:href="#DejaVuSans-72" transform="translate(329.6875 0)"/>
     <use xlink:href="#DejaVuSans-65" transform="translate(368.550781 0)"/>
     <use xlink:href="#DejaVuSans-61" transform="translate(430.074219 0)"/>
     <use xlink:href="#DejaVuSans-20" transform="translate(491.353516 0)"/>
     <use xlink:href="#DejaVuSans-20" transform="translate(523.140625 0)"/>
     <use xlink:href="#DejaVuSans-b7" transform="translate(554.927734 0)"/>
     <use xlink:href="#DejaVuSans-20" transform="translate(586.714844 0)"/>
     <use xlink:href="#DejaVuSans-20" transform="translate(618.501953 0)"/>
     <use xlink:href="#DejaVuSans-4c" transform="translate(650.289062 0)"/>
     <use xlink:href="#DejaVuSans-6f" transform="translate(704.251953 0)"/>
     <use xlink:href="#DejaVuSans-74" transform="translate(765.433594 0)"/>
     <use xlink:href="#DejaVuSans-41" transform="translate(804.642578 0)"/>
     <use xlink:href="#DejaVuSans-72" transform="translate(873.050781 0)"/>
     <use xlink:href="#DejaVuSans-65" transform="translate(911.914062 0)"/>
     <use xlink:href="#DejaVuSans-61" transform="translate(973.4375 0)"/>
    </g>
    <!-- TotalBsmtSF -->
    <g style="fill: #22201f" transform="translate(417.564 146.851348) scale(0.09 -0.09)">
     <defs>
      <path id="DejaVuSans-54" d="M -19 4666 
L 3928 4666 
L 3928 4134 
L 2272 4134 
L 2272 0 
L 1638 0 
L 1638 4134 
L -19 4134 
L -19 4666 
z
" transform="scale(0.015625)"/>
      <path id="DejaVuSans-42" d="M 1259 2228 
L 1259 519 
L 2272 519 
Q 2781 519 3026 730 
Q 3272 941 3272 1375 
Q 3272 1813 3026 2020 
Q 2781 2228 2272 2228 
L 1259 2228 
z
M 1259 4147 
L 1259 2741 
L 2194 2741 
Q 2656 2741 2882 2914 
Q 3109 3088 3109 3444 
Q 3109 3797 2882 3972 
Q 2656 4147 2194 4147 
L 1259 4147 
z
M 628 4666 
L 2241 4666 
Q 2963 4666 3353 4366 
Q 3744 4066 3744 3513 
Q 3744 3084 3544 2831 
Q 3344 2578 2956 2516 
Q 3422 2416 3680 2098 
Q 3938 1781 3938 1306 
Q 3938 681 3513 340 
Q 3088 0 2303 0 
L 628 0 
L 628 4666 
z
" transform="scale(0.015625)"/>
      <path id="DejaVuSans-46" d="M 628 4666 
L 3309 4666 
L 3309 4134 
L 1259 4134 
L 1259 2759 
L 3109 2759 
L 3109 2228 
L 1259 2228 
L 1259 0 
L 628 0 
L 628 4666 
z
" transform="scale(0.015625)"/>
     </defs>
     <use xlink:href="#DejaVuSans-54"/>
     <use xlink:href="#DejaVuSans-6f" transform="translate(44.083984 0)"/>
     <use xlink:href="#DejaVuSans-74" transform="translate(105.265625 0)"/>
     <use xlink:href="#DejaVuSans-61" transform="translate(144.474609 0)"/>
     <use xlink:href="#DejaVuSans-6c" transform="translate(205.753906 0)"/>
     <use xlink:href="#DejaVuSans-42" transform="translate(233.537109 0)"/>
     <use xlink:href="#DejaVuSans-73" transform="translate(302.140625 0)"/>
     <use xlink:href="#DejaVuSans-6d" transform="translate(354.240234 0)"/>
     <use xlink:href="#DejaVuSans-74" transform="translate(451.652344 0)"/>
     <use xlink:href="#DejaVuSans-53" transform="translate(490.861328 0)"/>
     <use xlink:href="#DejaVuSans-46" transform="translate(554.337891 0)"/>
    </g>
   </g>
   <g id="text_9">
    <!-- QUALITY -->
    <g style="fill: #d67a45" transform="translate(35.334 228.616175) scale(0.1 -0.1)">
     <defs>
      <path id="DejaVuSans-Bold-51" d="M 2847 -84 
L 2753 -84 
Q 1600 -84 959 553 
Q 319 1191 319 2328 
Q 319 3463 958 4106 
Q 1597 4750 2719 4750 
Q 3853 4750 4486 4112 
Q 5119 3475 5119 2328 
Q 5119 1541 4783 972 
Q 4447 403 3816 116 
L 4756 -934 
L 3609 -934 
L 2847 -84 
z
M 2719 3878 
Q 2169 3878 1866 3472 
Q 1563 3066 1563 2328 
Q 1563 1578 1859 1179 
Q 2156 781 2719 781 
Q 3272 781 3575 1187 
Q 3878 1594 3878 2328 
Q 3878 3066 3575 3472 
Q 3272 3878 2719 3878 
z
" transform="scale(0.015625)"/>
      <path id="DejaVuSans-Bold-59" d="M -63 4666 
L 1253 4666 
L 2316 3003 
L 3378 4666 
L 4697 4666 
L 2919 1966 
L 2919 0 
L 1716 0 
L 1716 1966 
L -63 4666 
z
" transform="scale(0.015625)"/>
     </defs>
     <use xlink:href="#DejaVuSans-Bold-51"/>
     <use xlink:href="#DejaVuSans-Bold-55" transform="translate(85.009766 0)"/>
     <use xlink:href="#DejaVuSans-Bold-41" transform="translate(163.085938 0)"/>
     <use xlink:href="#DejaVuSans-Bold-4c" transform="translate(240.478516 0)"/>
     <use xlink:href="#DejaVuSans-Bold-49" transform="translate(304.199219 0)"/>
     <use xlink:href="#DejaVuSans-Bold-54" transform="translate(341.40625 0)"/>
     <use xlink:href="#DejaVuSans-Bold-59" transform="translate(409.619141 0)"/>
    </g>
   </g>
   <g id="text_10">
    <!-- OverallQual  ·  KitchenQual -->
    <g style="fill: #22201f" transform="translate(35.334 246.627527) scale(0.09 -0.09)">
     <defs>
      <path id="DejaVuSans-4f" d="M 2522 4238 
Q 1834 4238 1429 3725 
Q 1025 3213 1025 2328 
Q 1025 1447 1429 934 
Q 1834 422 2522 422 
Q 3209 422 3611 934 
Q 4013 1447 4013 2328 
Q 4013 3213 3611 3725 
Q 3209 4238 2522 4238 
z
M 2522 4750 
Q 3503 4750 4090 4092 
Q 4678 3434 4678 2328 
Q 4678 1225 4090 567 
Q 3503 -91 2522 -91 
Q 1538 -91 948 565 
Q 359 1222 359 2328 
Q 359 3434 948 4092 
Q 1538 4750 2522 4750 
z
" transform="scale(0.015625)"/>
      <path id="DejaVuSans-51" d="M 2522 4238 
Q 1834 4238 1429 3725 
Q 1025 3213 1025 2328 
Q 1025 1447 1429 934 
Q 1834 422 2522 422 
Q 3209 422 3611 934 
Q 4013 1447 4013 2328 
Q 4013 3213 3611 3725 
Q 3209 4238 2522 4238 
z
M 3406 84 
L 4238 -825 
L 3475 -825 
L 2784 -78 
Q 2681 -84 2626 -87 
Q 2572 -91 2522 -91 
Q 1538 -91 948 567 
Q 359 1225 359 2328 
Q 359 3434 948 4092 
Q 1538 4750 2522 4750 
Q 3503 4750 4090 4092 
Q 4678 3434 4678 2328 
Q 4678 1516 4351 937 
Q 4025 359 3406 84 
z
" transform="scale(0.015625)"/>
      <path id="DejaVuSans-75" d="M 544 1381 
L 544 3500 
L 1119 3500 
L 1119 1403 
Q 1119 906 1312 657 
Q 1506 409 1894 409 
Q 2359 409 2629 706 
Q 2900 1003 2900 1516 
L 2900 3500 
L 3475 3500 
L 3475 0 
L 2900 0 
L 2900 538 
Q 2691 219 2414 64 
Q 2138 -91 1772 -91 
Q 1169 -91 856 284 
Q 544 659 544 1381 
z
M 1991 3584 
L 1991 3584 
z
" transform="scale(0.015625)"/>
      <path id="DejaVuSans-4b" d="M 628 4666 
L 1259 4666 
L 1259 2694 
L 3353 4666 
L 4166 4666 
L 1850 2491 
L 4331 0 
L 3500 0 
L 1259 2247 
L 1259 0 
L 628 0 
L 628 4666 
z
" transform="scale(0.015625)"/>
     </defs>
     <use xlink:href="#DejaVuSans-4f"/>
     <use xlink:href="#DejaVuSans-76" transform="translate(78.710938 0)"/>
     <use xlink:href="#DejaVuSans-65" transform="translate(137.890625 0)"/>
     <use xlink:href="#DejaVuSans-72" transform="translate(199.414062 0)"/>
     <use xlink:href="#DejaVuSans-61" transform="translate(240.527344 0)"/>
     <use xlink:href="#DejaVuSans-6c" transform="translate(301.806641 0)"/>
     <use xlink:href="#DejaVuSans-6c" transform="translate(329.589844 0)"/>
     <use xlink:href="#DejaVuSans-51" transform="translate(357.373047 0)"/>
     <use xlink:href="#DejaVuSans-75" transform="translate(436.083984 0)"/>
     <use xlink:href="#DejaVuSans-61" transform="translate(499.462891 0)"/>
     <use xlink:href="#DejaVuSans-6c" transform="translate(560.742188 0)"/>
     <use xlink:href="#DejaVuSans-20" transform="translate(588.525391 0)"/>
     <use xlink:href="#DejaVuSans-20" transform="translate(620.3125 0)"/>
     <use xlink:href="#DejaVuSans-b7" transform="translate(652.099609 0)"/>
     <use xlink:href="#DejaVuSans-20" transform="translate(683.886719 0)"/>
     <use xlink:href="#DejaVuSans-20" transform="translate(715.673828 0)"/>
     <use xlink:href="#DejaVuSans-4b" transform="translate(747.460938 0)"/>
     <use xlink:href="#DejaVuSans-69" transform="translate(813.037109 0)"/>
     <use xlink:href="#DejaVuSans-74" transform="translate(840.820312 0)"/>
     <use xlink:href="#DejaVuSans-63" transform="translate(880.029297 0)"/>
     <use xlink:href="#DejaVuSans-68" transform="translate(935.009766 0)"/>
     <use xlink:href="#DejaVuSans-65" transform="translate(998.388672 0)"/>
     <use xlink:href="#DejaVuSans-6e" transform="translate(1059.912109 0)"/>
     <use xlink:href="#DejaVuSans-51" transform="translate(1123.291016 0)"/>
     <use xlink:href="#DejaVuSans-75" transform="translate(1202.001953 0)"/>
     <use xlink:href="#DejaVuSans-61" transform="translate(1265.380859 0)"/>
     <use xlink:href="#DejaVuSans-6c" transform="translate(1326.660156 0)"/>
    </g>
    <!-- ExterQual -->
    <g style="fill: #22201f" transform="translate(35.334 257.731348) scale(0.09 -0.09)">
     <use xlink:href="#DejaVuSans-45"/>
     <use xlink:href="#DejaVuSans-78" transform="translate(63.183594 0)"/>
     <use xlink:href="#DejaVuSans-74" transform="translate(122.363281 0)"/>
     <use xlink:href="#DejaVuSans-65" transform="translate(161.572266 0)"/>
     <use xlink:href="#DejaVuSans-72" transform="translate(223.095703 0)"/>
     <use xlink:href="#DejaVuSans-51" transform="translate(264.208984 0)"/>
     <use xlink:href="#DejaVuSans-75" transform="translate(342.919922 0)"/>
     <use xlink:href="#DejaVuSans-61" transform="translate(406.298828 0)"/>
     <use xlink:href="#DejaVuSans-6c" transform="translate(467.578125 0)"/>
    </g>
   </g>
   <g id="text_11">
    <!-- AGE -->
    <g style="fill: #d2a943" transform="translate(417.564 228.616175) scale(0.1 -0.1)">
     <use xlink:href="#DejaVuSans-Bold-41"/>
     <use xlink:href="#DejaVuSans-Bold-47" transform="translate(77.392578 0)"/>
     <use xlink:href="#DejaVuSans-Bold-45" transform="translate(159.472656 0)"/>
    </g>
   </g>
   <g id="text_12">
    <!-- YearBuilt  ·  YearRemodAdd -->
    <g style="fill: #22201f" transform="translate(417.564 252.179438) scale(0.09 -0.09)">
     <defs>
      <path id="DejaVuSans-59" d="M -13 4666 
L 666 4666 
L 1959 2747 
L 3244 4666 
L 3922 4666 
L 2272 2222 
L 2272 0 
L 1638 0 
L 1638 2222 
L -13 4666 
z
" transform="scale(0.015625)"/>
      <path id="DejaVuSans-52" d="M 2841 2188 
Q 3044 2119 3236 1894 
Q 3428 1669 3622 1275 
L 4263 0 
L 3584 0 
L 2988 1197 
Q 2756 1666 2539 1819 
Q 2322 1972 1947 1972 
L 1259 1972 
L 1259 0 
L 628 0 
L 628 4666 
L 2053 4666 
Q 2853 4666 3247 4331 
Q 3641 3997 3641 3322 
Q 3641 2881 3436 2590 
Q 3231 2300 2841 2188 
z
M 1259 4147 
L 1259 2491 
L 2053 2491 
Q 2509 2491 2742 2702 
Q 2975 2913 2975 3322 
Q 2975 3731 2742 3939 
Q 2509 4147 2053 4147 
L 1259 4147 
z
" transform="scale(0.015625)"/>
     </defs>
     <use xlink:href="#DejaVuSans-59"/>
     <use xlink:href="#DejaVuSans-65" transform="translate(47.833984 0)"/>
     <use xlink:href="#DejaVuSans-61" transform="translate(109.357422 0)"/>
     <use xlink:href="#DejaVuSans-72" transform="translate(170.636719 0)"/>
     <use xlink:href="#DejaVuSans-42" transform="translate(211.75 0)"/>
     <use xlink:href="#DejaVuSans-75" transform="translate(280.353516 0)"/>
     <use xlink:href="#DejaVuSans-69" transform="translate(343.732422 0)"/>
     <use xlink:href="#DejaVuSans-6c" transform="translate(371.515625 0)"/>
     <use xlink:href="#DejaVuSans-74" transform="translate(399.298828 0)"/>
     <use xlink:href="#DejaVuSans-20" transform="translate(438.507812 0)"/>
     <use xlink:href="#DejaVuSans-20" transform="translate(470.294922 0)"/>
     <use xlink:href="#DejaVuSans-b7" transform="translate(502.082031 0)"/>
     <use xlink:href="#DejaVuSans-20" transform="translate(533.869141 0)"/>
     <use xlink:href="#DejaVuSans-20" transform="translate(565.65625 0)"/>
     <use xlink:href="#DejaVuSans-59" transform="translate(597.443359 0)"/>
     <use xlink:href="#DejaVuSans-65" transform="translate(645.277344 0)"/>
     <use xlink:href="#DejaVuSans-61" transform="translate(706.800781 0)"/>
     <use xlink:href="#DejaVuSans-72" transform="translate(768.080078 0)"/>
     <use xlink:href="#DejaVuSans-52" transform="translate(809.193359 0)"/>
     <use xlink:href="#DejaVuSans-65" transform="translate(874.175781 0)"/>
     <use xlink:href="#DejaVuSans-6d" transform="translate(935.699219 0)"/>
     <use xlink:href="#DejaVuSans-6f" transform="translate(1033.111328 0)"/>
     <use xlink:href="#DejaVuSans-64" transform="translate(1094.292969 0)"/>
     <use xlink:href="#DejaVuSans-41" transform="translate(1157.769531 0)"/>
     <use xlink:href="#DejaVuSans-64" transform="translate(1224.427734 0)"/>
     <use xlink:href="#DejaVuSans-64" transform="translate(1287.904297 0)"/>
    </g>
   </g>
   <g id="text_13">
    <!-- STRUCTURE -->
    <g style="fill: #6d63a8" transform="translate(35.334 339.496175) scale(0.1 -0.1)">
     <use xlink:href="#DejaVuSans-Bold-53"/>
     <use xlink:href="#DejaVuSans-Bold-54" transform="translate(72.021484 0)"/>
     <use xlink:href="#DejaVuSans-Bold-52" transform="translate(140.234375 0)"/>
     <use xlink:href="#DejaVuSans-Bold-55" transform="translate(217.236328 0)"/>
     <use xlink:href="#DejaVuSans-Bold-43" transform="translate(298.4375 0)"/>
     <use xlink:href="#DejaVuSans-Bold-54" transform="translate(371.826172 0)"/>
     <use xlink:href="#DejaVuSans-Bold-55" transform="translate(440.039062 0)"/>
     <use xlink:href="#DejaVuSans-Bold-52" transform="translate(521.240234 0)"/>
     <use xlink:href="#DejaVuSans-Bold-45" transform="translate(598.242188 0)"/>
    </g>
   </g>
   <g id="text_14">
    <!-- HouseStyle  ·  BldgType -->
    <g style="fill: #22201f" transform="translate(35.334 357.507527) scale(0.09 -0.09)">
     <defs>
      <path id="DejaVuSans-48" d="M 628 4666 
L 1259 4666 
L 1259 2753 
L 3553 2753 
L 3553 4666 
L 4184 4666 
L 4184 0 
L 3553 0 
L 3553 2222 
L 1259 2222 
L 1259 0 
L 628 0 
L 628 4666 
z
" transform="scale(0.015625)"/>
      <path id="DejaVuSans-79" d="M 2059 -325 
Q 1816 -950 1584 -1140 
Q 1353 -1331 966 -1331 
L 506 -1331 
L 506 -850 
L 844 -850 
Q 1081 -850 1212 -737 
Q 1344 -625 1503 -206 
L 1606 56 
L 191 3500 
L 800 3500 
L 1894 763 
L 2988 3500 
L 3597 3500 
L 2059 -325 
z
" transform="scale(0.015625)"/>
     </defs>
     <use xlink:href="#DejaVuSans-48"/>
     <use xlink:href="#DejaVuSans-6f" transform="translate(75.195312 0)"/>
     <use xlink:href="#DejaVuSans-75" transform="translate(136.376953 0)"/>
     <use xlink:href="#DejaVuSans-73" transform="translate(199.755859 0)"/>
     <use xlink:href="#DejaVuSans-65" transform="translate(251.855469 0)"/>
     <use xlink:href="#DejaVuSans-53" transform="translate(313.378906 0)"/>
     <use xlink:href="#DejaVuSans-74" transform="translate(376.855469 0)"/>
     <use xlink:href="#DejaVuSans-79" transform="translate(416.064453 0)"/>
     <use xlink:href="#DejaVuSans-6c" transform="translate(475.244141 0)"/>
     <use xlink:href="#DejaVuSans-65" transform="translate(503.027344 0)"/>
     <use xlink:href="#DejaVuSans-20" transform="translate(564.550781 0)"/>
     <use xlink:href="#DejaVuSans-20" transform="translate(596.337891 0)"/>
     <use xlink:href="#DejaVuSans-b7" transform="translate(628.125 0)"/>
     <use xlink:href="#DejaVuSans-20" transform="translate(659.912109 0)"/>
     <use xlink:href="#DejaVuSans-20" transform="translate(691.699219 0)"/>
     <use xlink:href="#DejaVuSans-42" transform="translate(723.486328 0)"/>
     <use xlink:href="#DejaVuSans-6c" transform="translate(792.089844 0)"/>
     <use xlink:href="#DejaVuSans-64" transform="translate(819.873047 0)"/>
     <use xlink:href="#DejaVuSans-67" transform="translate(883.349609 0)"/>
     <use xlink:href="#DejaVuSans-54" transform="translate(946.826172 0)"/>
     <use xlink:href="#DejaVuSans-79" transform="translate(992.285156 0)"/>
     <use xlink:href="#DejaVuSans-70" transform="translate(1051.464844 0)"/>
     <use xlink:href="#DejaVuSans-65" transform="translate(1114.941406 0)"/>
    </g>
    <!-- RoofStyle -->
    <g style="fill: #22201f" transform="translate(35.334 368.611348) scale(0.09 -0.09)">
     <use xlink:href="#DejaVuSans-52"/>
     <use xlink:href="#DejaVuSans-6f" transform="translate(64.982422 0)"/>
     <use xlink:href="#DejaVuSans-6f" transform="translate(126.164062 0)"/>
     <use xlink:href="#DejaVuSans-66" transform="translate(187.345703 0)"/>
     <use xlink:href="#DejaVuSans-53" transform="translate(222.550781 0)"/>
     <use xlink:href="#DejaVuSans-74" transform="translate(286.027344 0)"/>
     <use xlink:href="#DejaVuSans-79" transform="translate(325.236328 0)"/>
     <use xlink:href="#DejaVuSans-6c" transform="translate(384.416016 0)"/>
     <use xlink:href="#DejaVuSans-65" transform="translate(412.199219 0)"/>
    </g>
   </g>
   <g id="text_15">
    <!-- AMENITIES -->
    <g style="fill: #2b806b" transform="translate(417.564 339.496175) scale(0.1 -0.1)">
     <defs>
      <path id="DejaVuSans-Bold-4d" d="M 588 4666 
L 2119 4666 
L 3181 2169 
L 4250 4666 
L 5778 4666 
L 5778 0 
L 4641 0 
L 4641 3413 
L 3566 897 
L 2803 897 
L 1728 3413 
L 1728 0 
L 588 0 
L 588 4666 
z
" transform="scale(0.015625)"/>
     </defs>
     <use xlink:href="#DejaVuSans-Bold-41"/>
     <use xlink:href="#DejaVuSans-Bold-4d" transform="translate(77.392578 0)"/>
     <use xlink:href="#DejaVuSans-Bold-45" transform="translate(176.904297 0)"/>
     <use xlink:href="#DejaVuSans-Bold-4e" transform="translate(245.214844 0)"/>
     <use xlink:href="#DejaVuSans-Bold-49" transform="translate(328.90625 0)"/>
     <use xlink:href="#DejaVuSans-Bold-54" transform="translate(366.113281 0)"/>
     <use xlink:href="#DejaVuSans-Bold-49" transform="translate(434.326172 0)"/>
     <use xlink:href="#DejaVuSans-Bold-45" transform="translate(471.533203 0)"/>
     <use xlink:href="#DejaVuSans-Bold-53" transform="translate(539.84375 0)"/>
    </g>
   </g>
   <g id="text_16">
    <!-- GarageCars  ·  GarageArea -->
    <g style="fill: #22201f" transform="translate(417.564 357.507527) scale(0.09 -0.09)">
     <defs>
      <path id="DejaVuSans-43" d="M 4122 4306 
L 4122 3641 
Q 3803 3938 3442 4084 
Q 3081 4231 2675 4231 
Q 1875 4231 1450 3742 
Q 1025 3253 1025 2328 
Q 1025 1406 1450 917 
Q 1875 428 2675 428 
Q 3081 428 3442 575 
Q 3803 722 4122 1019 
L 4122 359 
Q 3791 134 3420 21 
Q 3050 -91 2638 -91 
Q 1578 -91 968 557 
Q 359 1206 359 2328 
Q 359 3453 968 4101 
Q 1578 4750 2638 4750 
Q 3056 4750 3426 4639 
Q 3797 4528 4122 4306 
z
" transform="scale(0.015625)"/>
     </defs>
     <use xlink:href="#DejaVuSans-47"/>
     <use xlink:href="#DejaVuSans-61" transform="translate(77.490234 0)"/>
     <use xlink:href="#DejaVuSans-72" transform="translate(138.769531 0)"/>
     <use xlink:href="#DejaVuSans-61" transform="translate(179.882812 0)"/>
     <use xlink:href="#DejaVuSans-67" transform="translate(241.162109 0)"/>
     <use xlink:href="#DejaVuSans-65" transform="translate(304.638672 0)"/>
     <use xlink:href="#DejaVuSans-43" transform="translate(366.162109 0)"/>
     <use xlink:href="#DejaVuSans-61" transform="translate(435.986328 0)"/>
     <use xlink:href="#DejaVuSans-72" transform="translate(497.265625 0)"/>
     <use xlink:href="#DejaVuSans-73" transform="translate(538.378906 0)"/>
     <use xlink:href="#DejaVuSans-20" transform="translate(590.478516 0)"/>
     <use xlink:href="#DejaVuSans-20" transform="translate(622.265625 0)"/>
     <use xlink:href="#DejaVuSans-b7" transform="translate(654.052734 0)"/>
     <use xlink:href="#DejaVuSans-20" transform="translate(685.839844 0)"/>
     <use xlink:href="#DejaVuSans-20" transform="translate(717.626953 0)"/>
     <use xlink:href="#DejaVuSans-47" transform="translate(749.414062 0)"/>
     <use xlink:href="#DejaVuSans-61" transform="translate(826.904297 0)"/>
     <use xlink:href="#DejaVuSans-72" transform="translate(888.183594 0)"/>
     <use xlink:href="#DejaVuSans-61" transform="translate(929.296875 0)"/>
     <use xlink:href="#DejaVuSans-67" transform="translate(990.576172 0)"/>
     <use xlink:href="#DejaVuSans-65" transform="translate(1054.052734 0)"/>
     <use xlink:href="#DejaVuSans-41" transform="translate(1115.576172 0)"/>
     <use xlink:href="#DejaVuSans-72" transform="translate(1183.984375 0)"/>
     <use xlink:href="#DejaVuSans-65" transform="translate(1222.847656 0)"/>
     <use xlink:href="#DejaVuSans-61" transform="translate(1284.371094 0)"/>
    </g>
    <!-- Fireplaces -->
    <g style="fill: #22201f" transform="translate(417.564 368.611348) scale(0.09 -0.09)">
     <use xlink:href="#DejaVuSans-46"/>
     <use xlink:href="#DejaVuSans-69" transform="translate(50.269531 0)"/>
     <use xlink:href="#DejaVuSans-72" transform="translate(78.052734 0)"/>
     <use xlink:href="#DejaVuSans-65" transform="translate(116.916016 0)"/>
     <use xlink:href="#DejaVuSans-70" transform="translate(178.439453 0)"/>
     <use xlink:href="#DejaVuSans-6c" transform="translate(241.916016 0)"/>
     <use xlink:href="#DejaVuSans-61" transform="translate(269.699219 0)"/>
     <use xlink:href="#DejaVuSans-63" transform="translate(330.978516 0)"/>
     <use xlink:href="#DejaVuSans-65" transform="translate(385.958984 0)"/>
     <use xlink:href="#DejaVuSans-73" transform="translate(447.482422 0)"/>
    </g>
   </g>
   <g id="text_17">
    <!-- Numeric features measure magnitude · Categorical features describe type and quality -->
    <g style="fill: #66615f" transform="translate(93.374922 467.424606) scale(0.095 -0.095)">
     <defs>
      <path id="DejaVuSans-71" d="M 947 1747 
Q 947 1113 1208 752 
Q 1469 391 1925 391 
Q 2381 391 2643 752 
Q 2906 1113 2906 1747 
Q 2906 2381 2643 2742 
Q 2381 3103 1925 3103 
Q 1469 3103 1208 2742 
Q 947 2381 947 1747 
z
M 2906 525 
Q 2725 213 2448 61 
Q 2172 -91 1784 -91 
Q 1150 -91 751 415 
Q 353 922 353 1747 
Q 353 2572 751 3078 
Q 1150 3584 1784 3584 
Q 2172 3584 2448 3432 
Q 2725 3281 2906 2969 
L 2906 3500 
L 3481 3500 
L 3481 -1331 
L 2906 -1331 
L 2906 525 
z
" transform="scale(0.015625)"/>
     </defs>
     <use xlink:href="#DejaVuSans-4e"/>
     <use xlink:href="#DejaVuSans-75" transform="translate(74.804688 0)"/>
     <use xlink:href="#DejaVuSans-6d" transform="translate(138.183594 0)"/>
     <use xlink:href="#DejaVuSans-65" transform="translate(235.595703 0)"/>
     <use xlink:href="#DejaVuSans-72" transform="translate(297.119141 0)"/>
     <use xlink:href="#DejaVuSans-69" transform="translate(338.232422 0)"/>
     <use xlink:href="#DejaVuSans-63" transform="translate(366.015625 0)"/>
     <use xlink:href="#DejaVuSans-20" transform="translate(420.996094 0)"/>
     <use xlink:href="#DejaVuSans-66" transform="translate(452.783203 0)"/>
     <use xlink:href="#DejaVuSans-65" transform="translate(487.988281 0)"/>
     <use xlink:href="#DejaVuSans-61" transform="translate(549.511719 0)"/>
     <use xlink:href="#DejaVuSans-74" transform="translate(610.791016 0)"/>
     <use xlink:href="#DejaVuSans-75" transform="translate(650 0)"/>
     <use xlink:href="#DejaVuSans-72" transform="translate(713.378906 0)"/>
     <use xlink:href="#DejaVuSans-65" transform="translate(752.242188 0)"/>
     <use xlink:href="#DejaVuSans-73" transform="translate(813.765625 0)"/>
     <use xlink:href="#DejaVuSans-20" transform="translate(865.865234 0)"/>
     <use xlink:href="#DejaVuSans-6d" transform="translate(897.652344 0)"/>
     <use xlink:href="#DejaVuSans-65" transform="translate(995.064453 0)"/>
     <use xlink:href="#DejaVuSans-61" transform="translate(1056.587891 0)"/>
     <use xlink:href="#DejaVuSans-73" transform="translate(1117.867188 0)"/>
     <use xlink:href="#DejaVuSans-75" transform="translate(1169.966797 0)"/>
     <use xlink:href="#DejaVuSans-72" transform="translate(1233.345703 0)"/>
     <use xlink:href="#DejaVuSans-65" transform="translate(1272.208984 0)"/>
     <use xlink:href="#DejaVuSans-20" transform="translate(1333.732422 0)"/>
     <use xlink:href="#DejaVuSans-6d" transform="translate(1365.519531 0)"/>
     <use xlink:href="#DejaVuSans-61" transform="translate(1462.931641 0)"/>
     <use xlink:href="#DejaVuSans-67" transform="translate(1524.210938 0)"/>
     <use xlink:href="#DejaVuSans-6e" transform="translate(1587.6875 0)"/>
     <use xlink:href="#DejaVuSans-69" transform="translate(1651.066406 0)"/>
     <use xlink:href="#DejaVuSans-74" transform="translate(1678.849609 0)"/>
     <use xlink:href="#DejaVuSans-75" transform="translate(1718.058594 0)"/>
     <use xlink:href="#DejaVuSans-64" transform="translate(1781.4375 0)"/>
     <use xlink:href="#DejaVuSans-65" transform="translate(1844.914062 0)"/>
     <use xlink:href="#DejaVuSans-20" transform="translate(1906.4375 0)"/>
     <use xlink:href="#DejaVuSans-b7" transform="translate(1938.224609 0)"/>
     <use xlink:href="#DejaVuSans-20" transform="translate(1970.011719 0)"/>
     <use xlink:href="#DejaVuSans-43" transform="translate(2001.798828 0)"/>
     <use xlink:href="#DejaVuSans-61" transform="translate(2071.623047 0)"/>
     <use xlink:href="#DejaVuSans-74" transform="translate(2132.902344 0)"/>
     <use xlink:href="#DejaVuSans-65" transform="translate(2172.111328 0)"/>
     <use xlink:href="#DejaVuSans-67" transform="translate(2233.634766 0)"/>
     <use xlink:href="#DejaVuSans-6f" transform="translate(2297.111328 0)"/>
     <use xlink:href="#DejaVuSans-72" transform="translate(2358.292969 0)"/>
     <use xlink:href="#DejaVuSans-69" transform="translate(2399.40625 0)"/>
     <use xlink:href="#DejaVuSans-63" transform="translate(2427.189453 0)"/>
     <use xlink:href="#DejaVuSans-61" transform="translate(2482.169922 0)"/>
     <use xlink:href="#DejaVuSans-6c" transform="translate(2543.449219 0)"/>
     <use xlink:href="#DejaVuSans-20" transform="translate(2571.232422 0)"/>
     <use xlink:href="#DejaVuSans-66" transform="translate(2603.019531 0)"/>
     <use xlink:href="#DejaVuSans-65" transform="translate(2638.224609 0)"/>
     <use xlink:href="#DejaVuSans-61" transform="translate(2699.748047 0)"/>
     <use xlink:href="#DejaVuSans-74" transform="translate(2761.027344 0)"/>
     <use xlink:href="#DejaVuSans-75" transform="translate(2800.236328 0)"/>
     <use xlink:href="#DejaVuSans-72" transform="translate(2863.615234 0)"/>
     <use xlink:href="#DejaVuSans-65" transform="translate(2902.478516 0)"/>
     <use xlink:href="#DejaVuSans-73" transform="translate(2964.001953 0)"/>
     <use xlink:href="#DejaVuSans-20" transform="translate(3016.101562 0)"/>
     <use xlink:href="#DejaVuSans-64" transform="translate(3047.888672 0)"/>
     <use xlink:href="#DejaVuSans-65" transform="translate(3111.365234 0)"/>
     <use xlink:href="#DejaVuSans-73" transform="translate(3172.888672 0)"/>
     <use xlink:href="#DejaVuSans-63" transform="translate(3224.988281 0)"/>
     <use xlink:href="#DejaVuSans-72" transform="translate(3279.96875 0)"/>
     <use xlink:href="#DejaVuSans-69" transform="translate(3321.082031 0)"/>
     <use xlink:href="#DejaVuSans-62" transform="translate(3348.865234 0)"/>
     <use xlink:href="#DejaVuSans-65" transform="translate(3412.341797 0)"/>
     <use xlink:href="#DejaVuSans-20" transform="translate(3473.865234 0)"/>
     <use xlink:href="#DejaVuSans-74" transform="translate(3505.652344 0)"/>
     <use xlink:href="#DejaVuSans-79" transform="translate(3544.861328 0)"/>
     <use xlink:href="#DejaVuSans-70" transform="translate(3604.041016 0)"/>
     <use xlink:href="#DejaVuSans-65" transform="translate(3667.517578 0)"/>
     <use xlink:href="#DejaVuSans-20" transform="translate(3729.041016 0)"/>
     <use xlink:href="#DejaVuSans-61" transform="translate(3760.828125 0)"/>
     <use xlink:href="#DejaVuSans-6e" transform="translate(3822.107422 0)"/>
     <use xlink:href="#DejaVuSans-64" transform="translate(3885.486328 0)"/>
     <use xlink:href="#DejaVuSans-20" transform="translate(3948.962891 0)"/>
     <use xlink:href="#DejaVuSans-71" transform="translate(3980.75 0)"/>
     <use xlink:href="#DejaVuSans-75" transform="translate(4044.226562 0)"/>
     <use xlink:href="#DejaVuSans-61" transform="translate(4107.605469 0)"/>
     <use xlink:href="#DejaVuSans-6c" transform="translate(4168.884766 0)"/>
     <use xlink:href="#DejaVuSans-69" transform="translate(4196.667969 0)"/>
     <use xlink:href="#DejaVuSans-74" transform="translate(4224.451172 0)"/>
     <use xlink:href="#DejaVuSans-79" transform="translate(4263.660156 0)"/>
    </g>
   </g>
   <g id="text_18">
    <!-- 40 NUMERIC PREDICTORS   ·   42 CATEGORICAL PREDICTORS   ·   1 TARGET -->
    <g style="fill: #6d63a8" transform="translate(79.588125 489.876544) scale(0.105 -0.105)">
     <defs>
      <path id="DejaVuSans-Bold-34" d="M 2356 3675 
L 1038 1722 
L 2356 1722 
L 2356 3675 
z
M 2156 4666 
L 3494 4666 
L 3494 1722 
L 4159 1722 
L 4159 850 
L 3494 850 
L 3494 0 
L 2356 0 
L 2356 850 
L 288 850 
L 288 1881 
L 2156 4666 
z
" transform="scale(0.015625)"/>
      <path id="DejaVuSans-Bold-30" d="M 2944 2338 
Q 2944 3213 2780 3570 
Q 2616 3928 2228 3928 
Q 1841 3928 1675 3570 
Q 1509 3213 1509 2338 
Q 1509 1453 1675 1090 
Q 1841 728 2228 728 
Q 2613 728 2778 1090 
Q 2944 1453 2944 2338 
z
M 4147 2328 
Q 4147 1169 3647 539 
Q 3147 -91 2228 -91 
Q 1306 -91 806 539 
Q 306 1169 306 2328 
Q 306 3491 806 4120 
Q 1306 4750 2228 4750 
Q 3147 4750 3647 4120 
Q 4147 3491 4147 2328 
z
" transform="scale(0.015625)"/>
      <path id="DejaVuSans-Bold-32" d="M 1844 884 
L 3897 884 
L 3897 0 
L 506 0 
L 506 884 
L 2209 2388 
Q 2438 2594 2547 2791 
Q 2656 2988 2656 3200 
Q 2656 3528 2436 3728 
Q 2216 3928 1850 3928 
Q 1569 3928 1234 3808 
Q 900 3688 519 3450 
L 519 4475 
Q 925 4609 1322 4679 
Q 1719 4750 2100 4750 
Q 2938 4750 3402 4381 
Q 3866 4013 3866 3353 
Q 3866 2972 3669 2642 
Q 3472 2313 2841 1759 
L 1844 884 
z
" transform="scale(0.015625)"/>
      <path id="DejaVuSans-Bold-31" d="M 750 831 
L 1813 831 
L 1813 3847 
L 722 3622 
L 722 4441 
L 1806 4666 
L 2950 4666 
L 2950 831 
L 4013 831 
L 4013 0 
L 750 0 
L 750 831 
z
" transform="scale(0.015625)"/>
     </defs>
     <use xlink:href="#DejaVuSans-Bold-34"/>
     <use xlink:href="#DejaVuSans-Bold-30" transform="translate(69.580078 0)"/>
     <use xlink:href="#DejaVuSans-Bold-20" transform="translate(139.160156 0)"/>
     <use xlink:href="#DejaVuSans-Bold-4e" transform="translate(173.974609 0)"/>
     <use xlink:href="#DejaVuSans-Bold-55" transform="translate(257.666016 0)"/>
     <use xlink:href="#DejaVuSans-Bold-4d" transform="translate(338.867188 0)"/>
     <use xlink:href="#DejaVuSans-Bold-45" transform="translate(438.378906 0)"/>
     <use xlink:href="#DejaVuSans-Bold-52" transform="translate(506.689453 0)"/>
     <use xlink:href="#DejaVuSans-Bold-49" transform="translate(583.691406 0)"/>
     <use xlink:href="#DejaVuSans-Bold-43" transform="translate(620.898438 0)"/>
     <use xlink:href="#DejaVuSans-Bold-20" transform="translate(694.287109 0)"/>
     <use xlink:href="#DejaVuSans-Bold-50" transform="translate(729.101562 0)"/>
     <use xlink:href="#DejaVuSans-Bold-52" transform="translate(802.392578 0)"/>
     <use xlink:href="#DejaVuSans-Bold-45" transform="translate(879.394531 0)"/>
     <use xlink:href="#DejaVuSans-Bold-44" transform="translate(947.705078 0)"/>
     <use xlink:href="#DejaVuSans-Bold-49" transform="translate(1030.712891 0)"/>
     <use xlink:href="#DejaVuSans-Bold-43" transform="translate(1067.919922 0)"/>
     <use xlink:href="#DejaVuSans-Bold-54" transform="translate(1141.308594 0)"/>
     <use xlink:href="#DejaVuSans-Bold-4f" transform="translate(1209.521484 0)"/>
     <use xlink:href="#DejaVuSans-Bold-52" transform="translate(1294.53125 0)"/>
     <use xlink:href="#DejaVuSans-Bold-53" transform="translate(1371.533203 0)"/>
     <use xlink:href="#DejaVuSans-Bold-20" transform="translate(1443.554688 0)"/>
     <use xlink:href="#DejaVuSans-Bold-20" transform="translate(1478.369141 0)"/>
     <use xlink:href="#DejaVuSans-Bold-20" transform="translate(1513.183594 0)"/>
     <use xlink:href="#DejaVuSans-Bold-b7" transform="translate(1547.998047 0)"/>
     <use xlink:href="#DejaVuSans-Bold-20" transform="translate(1585.986328 0)"/>
     <use xlink:href="#DejaVuSans-Bold-20" transform="translate(1620.800781 0)"/>
     <use xlink:href="#DejaVuSans-Bold-20" transform="translate(1655.615234 0)"/>
     <use xlink:href="#DejaVuSans-Bold-34" transform="translate(1690.429688 0)"/>
     <use xlink:href="#DejaVuSans-Bold-32" transform="translate(1760.009766 0)"/>
     <use xlink:href="#DejaVuSans-Bold-20" transform="translate(1829.589844 0)"/>
     <use xlink:href="#DejaVuSans-Bold-43" transform="translate(1864.404297 0)"/>
     <use xlink:href="#DejaVuSans-Bold-41" transform="translate(1937.792969 0)"/>
     <use xlink:href="#DejaVuSans-Bold-54" transform="translate(2007.435547 0)"/>
     <use xlink:href="#DejaVuSans-Bold-45" transform="translate(2075.648438 0)"/>
     <use xlink:href="#DejaVuSans-Bold-47" transform="translate(2143.958984 0)"/>
     <use xlink:href="#DejaVuSans-Bold-4f" transform="translate(2226.039062 0)"/>
     <use xlink:href="#DejaVuSans-Bold-52" transform="translate(2311.048828 0)"/>
     <use xlink:href="#DejaVuSans-Bold-49" transform="translate(2388.050781 0)"/>
     <use xlink:href="#DejaVuSans-Bold-43" transform="translate(2425.257812 0)"/>
     <use xlink:href="#DejaVuSans-Bold-41" transform="translate(2498.646484 0)"/>
     <use xlink:href="#DejaVuSans-Bold-4c" transform="translate(2576.039062 0)"/>
     <use xlink:href="#DejaVuSans-Bold-20" transform="translate(2639.759766 0)"/>
     <use xlink:href="#DejaVuSans-Bold-50" transform="translate(2674.574219 0)"/>
     <use xlink:href="#DejaVuSans-Bold-52" transform="translate(2747.865234 0)"/>
     <use xlink:href="#DejaVuSans-Bold-45" transform="translate(2824.867188 0)"/>
     <use xlink:href="#DejaVuSans-Bold-44" transform="translate(2893.177734 0)"/>
     <use xlink:href="#DejaVuSans-Bold-49" transform="translate(2976.185547 0)"/>
     <use xlink:href="#DejaVuSans-Bold-43" transform="translate(3013.392578 0)"/>
     <use xlink:href="#DejaVuSans-Bold-54" transform="translate(3086.78125 0)"/>
     <use xlink:href="#DejaVuSans-Bold-4f" transform="translate(3154.994141 0)"/>
     <use xlink:href="#DejaVuSans-Bold-52" transform="translate(3240.003906 0)"/>
     <use xlink:href="#DejaVuSans-Bold-53" transform="translate(3317.005859 0)"/>
     <use xlink:href="#DejaVuSans-Bold-20" transform="translate(3389.027344 0)"/>
     <use xlink:href="#DejaVuSans-Bold-20" transform="translate(3423.841797 0)"/>
     <use xlink:href="#DejaVuSans-Bold-20" transform="translate(3458.65625 0)"/>
     <use xlink:href="#DejaVuSans-Bold-b7" transform="translate(3493.470703 0)"/>
     <use xlink:href="#DejaVuSans-Bold-20" transform="translate(3531.458984 0)"/>
     <use xlink:href="#DejaVuSans-Bold-20" transform="translate(3566.273438 0)"/>
     <use xlink:href="#DejaVuSans-Bold-20" transform="translate(3601.087891 0)"/>
     <use xlink:href="#DejaVuSans-Bold-31" transform="translate(3635.902344 0)"/>
     <use xlink:href="#DejaVuSans-Bold-20" transform="translate(3705.482422 0)"/>
     <use xlink:href="#DejaVuSans-Bold-54" transform="translate(3740.296875 0)"/>
     <use xlink:href="#DejaVuSans-Bold-41" transform="translate(3800.759766 0)"/>
     <use xlink:href="#DejaVuSans-Bold-52" transform="translate(3878.152344 0)"/>
     <use xlink:href="#DejaVuSans-Bold-47" transform="translate(3955.154297 0)"/>
     <use xlink:href="#DejaVuSans-Bold-45" transform="translate(4037.234375 0)"/>
     <use xlink:href="#DejaVuSans-Bold-54" transform="translate(4105.544922 0)"/>
    </g>
   </g>
   <g id="PathCollection_1">
    <defs>
     <path id="mffa26b350f" d="M 0 2.645751 
C 0.701661 2.645751 1.374679 2.366978 1.870829 1.870829 
C 2.366978 1.374679 2.645751 0.701661 2.645751 0 
C 2.645751 -0.701661 2.366978 -1.374679 1.870829 -1.870829 
C 1.374679 -2.366978 0.701661 -2.645751 0 -2.645751 
C -0.701661 -2.645751 -1.374679 -2.366978 -1.870829 -1.870829 
C -2.366978 -1.374679 -2.645751 -0.701661 -2.645751 0 
C -2.645751 0.701661 -2.366978 1.374679 -1.870829 1.870829 
C -1.374679 2.366978 -0.701661 2.645751 0 2.645751 
z
" style="stroke: #2b806b"/>
    </defs>
    <g clip-path="url(#p8617bd96fb)">
     <use xlink:href="#mffa26b350f" x="242.91" y="204.2352" style="fill: #2b806b; stroke: #2b806b"/>
    </g>
   </g>
   <g id="PathCollection_2">
    <defs>
     <path id="m6089fd4b80" d="M 0 2.645751 
C 0.701661 2.645751 1.374679 2.366978 1.870829 1.870829 
C 2.366978 1.374679 2.645751 0.701661 2.645751 0 
C 2.645751 -0.701661 2.366978 -1.374679 1.870829 -1.870829 
C 1.374679 -2.366978 0.701661 -2.645751 0 -2.645751 
C -0.701661 -2.645751 -1.374679 -2.366978 -1.870829 -1.870829 
C -2.366978 -1.374679 -2.645751 -0.701661 -2.645751 0 
C -2.645751 0.701661 -2.366978 1.374679 -1.870829 1.870829 
C -1.374679 2.366978 -0.701661 2.645751 0 2.645751 
z
" style="stroke: #447b9b"/>
    </defs>
    <g clip-path="url(#p8617bd96fb)">
     <use xlink:href="#m6089fd4b80" x="354.51" y="204.2352" style="fill: #447b9b; stroke: #447b9b"/>
    </g>
   </g>
   <g id="PathCollection_3">
    <defs>
     <path id="mba47138c67" d="M 0 2.645751 
C 0.701661 2.645751 1.374679 2.366978 1.870829 1.870829 
C 2.366978 1.374679 2.645751 0.701661 2.645751 0 
C 2.645751 -0.701661 2.366978 -1.374679 1.870829 -1.870829 
C 1.374679 -2.366978 0.701661 -2.645751 0 -2.645751 
C -0.701661 -2.645751 -1.374679 -2.366978 -1.870829 -1.870829 
C -2.366978 -1.374679 -2.645751 -0.701661 -2.645751 0 
C -2.645751 0.701661 -2.366978 1.374679 -1.870829 1.870829 
C -1.374679 2.366978 -0.701661 2.645751 0 2.645751 
z
" style="stroke: #d67a45"/>
    </defs>
    <g clip-path="url(#p8617bd96fb)">
     <use xlink:href="#mba47138c67" x="224.496" y="265.2192" style="fill: #d67a45; stroke: #d67a45"/>
    </g>
   </g>
   <g id="PathCollection_4">
    <defs>
     <path id="m0096901d9b" d="M 0 2.645751 
C 0.701661 2.645751 1.374679 2.366978 1.870829 1.870829 
C 2.366978 1.374679 2.645751 0.701661 2.645751 0 
C 2.645751 -0.701661 2.366978 -1.374679 1.870829 -1.870829 
C 1.374679 -2.366978 0.701661 -2.645751 0 -2.645751 
C -0.701661 -2.645751 -1.374679 -2.366978 -1.870829 -1.870829 
C -2.366978 -1.374679 -2.645751 -0.701661 -2.645751 0 
C -2.645751 0.701661 -2.366978 1.374679 -1.870829 1.870829 
C -1.374679 2.366978 -0.701661 2.645751 0 2.645751 
z
" style="stroke: #d2a943"/>
    </defs>
    <g clip-path="url(#p8617bd96fb)">
     <use xlink:href="#m0096901d9b" x="372.924" y="265.2192" style="fill: #d2a943; stroke: #d2a943"/>
    </g>
   </g>
   <g id="PathCollection_5">
    <defs>
     <path id="m483a13c3fb" d="M 0 2.645751 
C 0.701661 2.645751 1.374679 2.366978 1.870829 1.870829 
C 2.366978 1.374679 2.645751 0.701661 2.645751 0 
C 2.645751 -0.701661 2.366978 -1.374679 1.870829 -1.870829 
C 1.374679 -2.366978 0.701661 -2.645751 0 -2.645751 
C -0.701661 -2.645751 -1.374679 -2.366978 -1.870829 -1.870829 
C -2.366978 -1.374679 -2.645751 -0.701661 -2.645751 0 
C -2.645751 0.701661 -2.366978 1.374679 -1.870829 1.870829 
C -1.374679 2.366978 -0.701661 2.645751 0 2.645751 
z
" style="stroke: #6d63a8"/>
    </defs>
    <g clip-path="url(#p8617bd96fb)">
     <use xlink:href="#m483a13c3fb" x="237.33" y="332.856" style="fill: #6d63a8; stroke: #6d63a8"/>
    </g>
   </g>
   <g id="PathCollection_6">
    <g clip-path="url(#p8617bd96fb)">
     <use xlink:href="#mffa26b350f" x="360.09" y="332.856" style="fill: #2b806b; stroke: #2b806b"/>
    </g>
   </g>
  </g>
 </g>
 <defs>
  <clipPath id="p8617bd96fb">
   <rect x="5.76" y="5.76" width="585.9" height="510.048"/>
  </clipPath>
 </defs>
</svg>
